<?xml version="1.0" encoding="utf-8"?>
<!-- Generator: Adobe Illustrator 23.0.2, SVG Export Plug-In . SVG Version: 6.00 Build 0)  -->
<svg version="1.1" id="Capa_1" xmlns="http://www.w3.org/2000/svg" xmlns:xlink="http://www.w3.org/1999/xlink" x="0px" y="0px"
	 viewBox="0 0 76 76" style="enable-background:new 0 0 76 76;" xml:space="preserve">
<style type="text/css">
	.st0{fill:#8D8B90;}
	.st1{fill:#2A232B;}
	.st2{fill:#F0C7B1;}
	.st3{fill:#FFE4D6;}
	.st4{fill:#E1AC8F;}
	.st5{fill:none;stroke:#C27B55;stroke-width:0.163;}
	.st6{fill:url(#SvgjsPath3398_1_);}
	.st7{fill:#386E77;}
	.st8{fill:#4D7E86;}
	.st9{fill:#265E68;}
	.st10{fill:#0C4049;}
	.st11{fill:#F0C7B1;stroke:#C27B55;stroke-width:0.163;}
	.st12{fill:#C27B55;}
	.st13{fill:#E8B9A0;}
	.st14{fill:url(#SvgjsPath3762_1_);}
	.st15{stroke:#000000;stroke-width:5.434983e-02;}
	.st16{fill:#0F0F0F;}
	.st17{opacity:0.9;enable-background:new    ;}
	.st18{fill:none;stroke:#000000;stroke-width:8.152474e-02;}
	.st19{opacity:0.5;fill:#FFFFFF;enable-background:new    ;}
	.st20{opacity:0.8;fill:#FFFFFF;enable-background:new    ;}
	.st21{fill:url(#SvgjsPath3788_1_);}
	.st22{fill:url(#SvgjsPath3793_1_);}
	.st23{fill:url(#SvgjsPath3770_1_);}
	.st24{fill:url(#SvgjsPath3809_1_);}
	.st25{fill:url(#SvgjsPath3814_1_);}
	.st26{fill:url(#SvgjsPath2906_1_);}
	.st27{fill:url(#SvgjsPath2910_1_);}
	.st28{opacity:0.2;fill:#FFF5EF;enable-background:new    ;}
	.st29{fill:#1B141C;}
	.st30{fill:#26120B;}
	.st31{display:none;opacity:0.5;fill:#ECF0F1;enable-background:new    ;}
</style>
<g id="svga-group-wrapper">
	<g id="svga-group-backs-single">
		<path id="SvgjsPath3394" class="st0" d="M78.8,78.8H-2.8V-2.8h81.5V78.8z"/>
	</g>
	<g id="svga-group-humanwrap-move" transform="matrix(1,0,0,1,0,0)">
		<g id="svga-group-humanwrap" transform="matrix(0.8999995000000002,0,0,0.8999995000000002,9.98618274316405,10.8416557705078)">
			<g id="svga-group-hair-back-move" transform="matrix(1,0,0,1,0,0)">
				<g id="svga-group-hair-back" transform="matrix(1,0,0,1,0,0)">
					<path id="SvgjsPath3384" class="st1" d="M31.3,30.6H31v-0.3h0.3V30.6z"/>
				</g>
			</g>
			<g id="svga-group-humanbody-single">
				<path id="SvgjsPath2914" class="st2" d="M62.2,63c-0.7-1.5-2.7-3.8-4.8-4.5c-2.7-0.8-8.8-1.7-11-2.3c-1.8-0.4-5.4-3.7-6.7-4.8
					c-0.2-0.2-0.4-0.6-0.4-0.9c0-3.5,1.4-13,1.4-13h-9.5h-9.5c0,0,1.4,9.4,1.4,13c0,0.3-0.2,0.7-0.4,0.9c-1.3,1.1-4.9,4.4-6.7,4.8
					c-2.2,0.5-8.3,1.5-11,2.3C2.7,59.2,0.7,61.5,0,63c-1.2,2.6-1.5,7.3-1.5,11.4h32.6h32.6C63.7,70.4,63.4,65.6,62.2,63z"/>
				<path id="SvgjsPath2915" class="st3" d="M50.4,57.9c7.9,1.2,11.3,2.8,12.3,16.5h1c0-4.1-0.3-8.8-1.5-11.4
					c-0.7-1.5-2.7-3.8-4.8-4.5c-2.7-0.8-8.8-1.7-11-2.3c-1.8-0.4-5.9-3.9-7.1-5.3c1.1,1.5,4.2,5.1,6.9,6
					C47.5,57.4,48.6,57.6,50.4,57.9z M16,57c2.7-0.9,5.8-4.5,6.9-6c-1.1,1.4-5.3,4.9-7.1,5.3c-2.2,0.5-8.3,1.5-11,2.3
					C2.7,59.2,0.7,61.5,0,63c-1.2,2.6-1.5,7.3-1.5,11.4h1c1-13.6,4.4-15.4,12.3-16.5C13.7,57.6,14.8,57.4,16,57z"/>
				<path id="SvgjsPath2916" class="st4" d="M29.7,62.3c0,0-1.7-0.5-2.3-0.8c-3.4-1.3-14.5-2.2-14.5-2.2s11.7,0.5,14.2,0.9
					c-0.1-1.6-1-6.5-1-6.5s1.7,5.5,2.1,6.9C28.5,61.4,29.7,62.3,29.7,62.3z M33.2,61.9C33.2,61.9,33.2,61.9,33.2,61.9
					C33.2,61.9,33.2,61.9,33.2,61.9z M29.7,62.3c0,0,0.9,1,1.4,1c0.6,0,1.6-0.9,2-1.3c-0.4,0.3-1.4,0.5-1.7,0.5
					C31,62.4,29.7,62.3,29.7,62.3z M36.6,59.9c-0.5,0.1-1.4,0.3-1.4,0.3l0.7-4.9c-0.2,1-1.5,5.3-2.6,6.6c0.6-0.5,2-0.8,2.7-0.9
					c3.3-0.5,3.3-0.5,13.4-1.6C49.3,59.4,39.8,59.3,36.6,59.9z"/>
				<path id="SvgjsPath2917" class="st5" d="M62.2,63c-0.7-1.5-2.7-3.8-4.8-4.5c-2.7-0.8-8.8-1.7-11-2.3c-1.8-0.4-5.4-3.7-6.7-4.8
					c-0.2-0.2-0.4-0.6-0.4-0.9c0-3.5,1.4-13,1.4-13h-9.5h-9.5c0,0,1.4,9.4,1.4,13c0,0.3-0.2,0.7-0.4,0.9c-1.3,1.1-4.9,4.4-6.7,4.8
					c-2.2,0.5-8.3,1.5-11,2.3C2.7,59.2,0.7,61.5,0,63c-1.2,2.6-1.5,7.3-1.5,11.4h32.6h32.6C63.7,70.4,63.4,65.6,62.2,63z"/>
			</g>
			<g id="svga-group-chinshadow-single">
				
					<linearGradient id="SvgjsPath3398_1_" gradientUnits="userSpaceOnUse" x1="-194.58" y1="313.4325" x2="-194.58" y2="317.7805" gradientTransform="matrix(2.7 0 0 -2.7 556.4836 899.9012)">
					<stop  offset="0" style="stop-color:#E1AC8F;stop-opacity:0.8"/>
					<stop  offset="0.7" style="stop-color:#C27B55"/>
				</linearGradient>
				<path id="SvgjsPath3398" class="st6" d="M31.1,53.9c2.7,0,5.5-1.6,7.9-3.5c0-2.2,0.5-6.2,0.9-9.2c-5-0.7-12.5-0.7-17.5,0
					c0.4,2.9,0.9,6.9,0.9,9.1C25.6,52.3,28.5,53.9,31.1,53.9z"/>
			</g>
			<g id="svga-group-clothes-single">
				<path id="SvgjsPath3390" class="st7" d="M35,74.8c-6.2,0-13.5,0-22.3-0.1l-7.7,0c-4.7,0-4.9,0-5.5,0l-1.6,0
					C-3.6,61,2.6,57.4,12.2,56.2c2.5-0.4,5-1,7-2.3c5.3,7.3,21.1,5.7,23.8-0.2c0.5,0.2,0.8,0.4,1.3,0.6c1.5,1.1,3.6,1.9,5.7,2
					c8.5,0.5,14.5,4.2,14.4,17.8c0,0.1,0,0.4,0,0.5c-4.1,0-5.6,0-8.8,0.1C51.2,74.7,45.8,74.8,35,74.8C35,74.8,35,74.8,35,74.8z"/>
				<path id="SvgjsPath3391" class="st8" d="M64.1,74.4c-0.1-2.4-1.3-9.1-3.4-12.2c-4.1-6.1-13.8-4-16-6.4
					c-1.6,3.3-8.1,5.4-10.3,5.7c6.3-2.1,8.9-3.6,9.9-7.1c2.1,2.7,13.4,0.6,17.8,7.9C63.4,64.4,64.7,71.2,64.1,74.4z M16.7,55.8
					c0.4-0.1,0.7-0.4,1.1-0.5l-0.5-0.6c-3,2.3-14,0.9-17.8,7.8c-1.2,2.2-2,7.4-1.4,11.9c0.2-2.7,0.3-8.6,2.3-11.7
					c3.7-5.6,10.4-4.1,15.5-6.4c2.3,2.8,5.8,4.2,9.5,4.8C21,59.8,18.4,57.8,16.7,55.8z"/>
				<path id="SvgjsPath3392" class="st9" d="M42.6,54.4c-1.8,3.8-15.4,8.1-23.1,0.3c-0.5,0.2-1.9,0.7-1.9,0.7c5.6,7.6,22,7.7,26.4,0
					C44,55.3,43.1,54.6,42.6,54.4z"/>
				<path id="SvgjsPath3393" class="st10" d="M43,53.6c-3.1,6.1-19,7-23.8,0.2c-1.7,0.5-3.4,1.6-5.1,1.9C4,57.2-3.5,58-2.1,74.7
					c3.2,0-2.2,0,14.9,0.1c40.3,0.2,39-0.2,51.7-0.2c0,0,0-0.5,0-0.5c0.7-18.4-10.1-17.3-17.3-18.6c-1-0.2-2-0.9-2.8-1.3
					C43.8,54,43.5,53.8,43,53.6z M19.1,54c4.2,7.6,20.9,6.1,24.2,0c0.4,0.2,0.5,0.2,0.9,0.4c-3.3,7-19.9,9.2-26.6,0.4
					C17.6,54.8,18.6,54.2,19.1,54z M-1.8,74.4C-2.6,65.8-1.2,58.8,8.9,57c3.4-0.6,5.4-0.6,8.3-1.9c5.5,8.9,23.5,7.6,27.3-0.4
					c0.5,0.5,1.4,1,2.4,1.2c5.9,1.4,17.9-0.3,17.2,18.5C46.5,74.2,31.9,73.7-1.8,74.4z"/>
			</g>
			<g id="svga-group-head" transform="matrix(1,0,0,1,0,0)">
				<g id="svga-group-ears-left-move" transform="matrix(1,0,0,1,0,0)">
					<g id="svga-group-ears-left" transform="matrix(0.9499999,0,0,0.9499999,2.172758251757813,4.849912043554681)">
						<path id="SvgjsPath3450" class="st11" d="M12.2,21.5c-0.4-0.8-1.8-2.8-3.3-2.3c-0.9,0.3-1.1,1.3-1.2,2.2
							c-0.2,1.2,0.2,3.5,0.5,4.3c0.3,0.8,1.2,2.4,1.7,2.9c0.7,0.7,1.6,3,1.7,3.3c0.2,0.4,0.5,0.9,1.3,0.9c0.9-0.1,1.5-0.6,1.9-0.7
							C15.9,31.9,13.4,23.5,12.2,21.5z"/>
						<path id="SvgjsPath3451" class="st12" d="M11.3,26.3c0-0.2,0-0.5,0-0.8c0-0.3,0.1-0.5,0.1-0.7c-0.1-0.7-0.6-2-0.9-2.8
							c-0.4-0.8-1-1.9-1.7-2.2c-0.3-0.1-0.5,0-0.6,0.2c-0.1,0.1-0.1,0.2-0.1,0.2c0,0,0.1-0.1,0.2-0.2c0.1-0.1,0.2-0.1,0.3-0.1
							c-0.1,0.3-0.4,2.2-0.2,3.5c0.1,1,0.5,1.8,0.6,1.9c0,0.1,0,0.2,0,0.4c0.3,1.5,1.6,3.2,2.1,3.7c0.1,0.1,0.2,0.2,0.2,0.1
							c0,0,0-0.1-0.1-0.2c-0.5-0.5-1.8-2.2-2.1-3.7c-0.3-1.5,0.8-3.8,1-4.2c0.1,0.2,0.2,0.4,0.3,0.6c0.1,0.1,0.1,0.3,0.2,0.5
							c-0.1,0.2-1.1,2.1-0.8,3.5c0.1,0.5,0.7,1.2,1.1,1.4c0.2,0.1,0.3,0.3,0.4,0.4c0.1,0.2,0.2,0.4,0.6,0.6c0.1,0,0.1,0,0.2,0
							c0.1,0,0.2,0,0.2-0.1c0,0.1,0,0.2,0,0.3c0,0.1,0,0.3,0,0.3c0,0,0.1-0.1,0.1-0.2c0-0.2,0-0.4,0-0.5c-0.1-0.3-0.3-0.6-0.6-1
							C11.6,27,11.4,26.6,11.3,26.3z M8.9,25c-0.7-2.3,0.2-4.3,0.4-4.7c0.3,0.3,0.5,0.6,0.7,1C9.9,21.6,9,23.4,8.9,25z M12,28.4
							c-0.3-0.2-0.4-0.4-0.5-0.6c-0.1-0.2-0.2-0.4-0.4-0.5c-0.1,0-0.1-0.1-0.2-0.1c-0.8-2,0.1-2.9,0.3-3.1c0.1,0.2,0.1,0.5,0.1,0.7
							c0,0.2,0,0.4-0.1,0.7c0,0.3-0.1,0.7,0,0.9c0.1,0.3,0.3,0.7,0.6,1.1c0.2,0.3,0.5,0.7,0.6,0.9C12.3,28.4,12.2,28.5,12,28.4z"/>
					</g>
				</g>
				<g id="svga-group-ears-right-move" transform="matrix(1,0,0,1,0,0)">
					<g id="svga-group-ears-right" transform="matrix(0.9499999,0,0,0.9499999,7.814175784570324,4.849912043554681)">
						<path id="SvgjsPath3452" class="st11" d="M42.7,21.5c0.4-0.8,1.8-2.8,3.3-2.3c0.9,0.3,1.1,1.3,1.2,2.2
							c0.2,1.2-0.2,3.5-0.5,4.3c-0.3,0.8-1.2,2.4-1.7,2.9c-0.7,0.7-1.6,3-1.7,3.3c-0.2,0.4-0.5,0.9-1.3,0.9
							c-0.9-0.1-1.5-0.6-1.9-0.7C39,31.9,41.5,23.5,42.7,21.5z"/>
						<path id="SvgjsPath3453" class="st12" d="M43,27.3c-0.3,0.4-0.5,0.7-0.6,1c0,0.1,0,0.3,0,0.5c0,0.1,0,0.3,0.1,0.2s0-0.1,0-0.3
							c0-0.1,0-0.2,0-0.3c0.1,0.1,0.1,0.1,0.2,0.1c0.1,0,0.1,0,0.2,0c0.4-0.2,0.5-0.4,0.6-0.6c0.1-0.2,0.2-0.3,0.4-0.4
							c0.4-0.2,1-0.9,1.1-1.4c0.4-1.5-0.6-3.3-0.8-3.5c0.1-0.2,0.1-0.3,0.2-0.5c0.1-0.2,0.2-0.4,0.3-0.6c0.2,0.5,1.3,2.7,1,4.2
							c-0.3,1.4-1.6,3.1-2.1,3.7c-0.1,0.1-0.1,0.2-0.1,0.2c0,0,0.1,0,0.2-0.1c0.5-0.6,1.8-2.2,2.1-3.7c0-0.1,0-0.2,0-0.4
							c0.1-0.1,0.5-0.9,0.6-1.9c0.1-1.3-0.2-3.2-0.2-3.5c0.2,0,0.3,0.1,0.3,0.1c0.1,0.1,0.2,0.2,0.2,0.2c0,0,0-0.1-0.1-0.2
							c-0.1-0.1-0.3-0.3-0.6-0.2c-0.7,0.3-1.3,1.3-1.7,2.2c-0.3,0.7-0.8,2.1-0.9,2.8c0,0.2,0,0.5,0.1,0.7c0,0.3,0.1,0.6,0,0.8
							C43.5,26.6,43.3,27,43,27.3z M44.9,21.3c0.2-0.4,0.4-0.7,0.7-1c0.2,0.3,1.1,2.3,0.4,4.7C45.9,23.4,45,21.6,44.9,21.3z
							 M42.5,28.3c0.1-0.3,0.3-0.6,0.6-0.9c0.3-0.4,0.5-0.7,0.6-1.1c0-0.2,0-0.5,0-0.9c0-0.3-0.1-0.5-0.1-0.7c0-0.2,0.1-0.4,0.1-0.7
							c0.2,0.2,1.1,1.1,0.3,3.1c-0.1,0-0.1,0.1-0.2,0.1c-0.3,0.1-0.4,0.3-0.4,0.5c-0.1,0.2-0.2,0.4-0.5,0.6
							C42.7,28.5,42.6,28.4,42.5,28.3z"/>
					</g>
				</g>
				<g id="svga-group-faceshape-wrap" transform="matrix(1,0,0,1,0,0)">
					<g id="svga-group-faceshape-single">
						<path id="SvgjsPath3395" class="st2" d="M50.3,23.3L50.3,23.3c0,0-4,13.1-5.2,17.1c-0.2,0.8-0.6,1.5-1.2,2.1
							c-2.1,2.3-7.8,8.2-12.8,8.2c-5.2,0-11-6.2-12.9-8.5c-0.5-0.6-0.8-1.2-1-1.9c-1.2-3.8-5.3-16.8-5.3-16.9h0
							c-0.4-1.6-0.7-3.3-0.7-5.1C11.2,7.2,20.1-1.8,31-1.8c11,0,19.9,9,19.9,20.1C50.9,20,50.7,21.7,50.3,23.3z"/>
						<path id="SvgjsPath3396" class="st13" d="M41.6,1.2c4.7,3.6,7.7,9.6,7.7,16.4c0,1.8-0.2,3.5-0.6,5.1h0c0,0-3.7,13.1-4.8,17.1
							c-0.2,0.8-0.6,1.5-1.1,2.1C41,44.2,35.8,50,31.1,50c-4.8,0-10.1-6.2-11.9-8.5c-0.4-0.6-0.8-1.2-1-1.9
							c-1.1-3.8-4.8-16.8-4.8-16.9h0c-0.4-1.6-0.6-3.3-0.6-5.1c0-6.8,3-12.8,7.7-16.4c-5.6,3.6-9.3,9.9-9.3,17.1
							c0,1.8,0.2,3.5,0.7,5.1h0c0,0,4.1,13.1,5.3,16.9c0.2,0.7,0.6,1.3,1,1.9c2,2.3,7.8,8.5,12.9,8.5c5.1,0,10.7-5.8,12.8-8.2
							c0.5-0.6,0.9-1.3,1.2-2.1c1.2-4,5.2-17.1,5.2-17.1h0c0.4-1.6,0.6-3.3,0.6-5.1C50.9,11,47.2,4.8,41.6,1.2z"/>
						<path id="SvgjsPath3397" class="st5" d="M50.3,23.3L50.3,23.3c0,0-4,13.1-5.2,17.1c-0.2,0.8-0.6,1.5-1.2,2.1
							c-2.1,2.3-7.8,8.2-12.8,8.2c-5.2,0-11-6.2-12.9-8.5c-0.5-0.6-0.8-1.2-1-1.9c-1.2-3.8-5.3-16.8-5.3-16.9h0
							c-0.4-1.6-0.7-3.3-0.7-5.1C11.2,7.2,20.1-1.8,31-1.8c11,0,19.9,9,19.9,20.1C50.9,20,50.7,21.7,50.3,23.3z"/>
					</g>
				</g>
				<g id="svga-group-mouth-single-move" transform="matrix(1,0,0,1,0,0)">
					<g id="svga-group-mouth-single" transform="matrix(1,0,0,1,0,0)">
						<path id="SvgjsPath3127" class="st4" d="M29.4,42.7c0.1,0,3.6,0,3.6,0s-1,0.2-1.9,0.2C30.4,42.9,29.4,42.7,29.4,42.7z"/>
						<path id="SvgjsPath3128" class="st12" d="M26.7,42.2c-0.2-0.2,1.2-0.9,2-1.2c0.9-0.3,1.8-0.1,2.7-0.1c0.8-0.1,1.6-0.2,2.4,0
							c0.7,0.2,2.1,1,2.1,1.2c-0.1,0.2-1.4-0.6-2.1-0.7c-0.8-0.2-1.6,0.1-2.4,0.2c-0.8,0.1-1.7-0.2-2.5-0.1
							C28.2,41.6,26.8,42.3,26.7,42.2z"/>
					</g>
				</g>
				<g id="svga-group-eyes-left-move" transform="matrix(1,0,0,1,0,0)">
					<g id="svga-group-eyes-left" transform="matrix(1,0,0,1,0,0)">
						<g id="svga-group-eyesback-left">
							
								<radialGradient id="SvgjsPath3762_1_" cx="-194.6438" cy="324.7256" r="1.4533" gradientTransform="matrix(-2.7464 0 0 -2.7464 -512.0307 917.3802)" gradientUnits="userSpaceOnUse">
								<stop  offset="0" style="stop-color:#FFFFFF"/>
								<stop  offset="0.544" style="stop-color:#FDFEFE"/>
								<stop  offset="0.74" style="stop-color:#F6F8F9"/>
								<stop  offset="0.879" style="stop-color:#EAEFF2"/>
								<stop  offset="0.992" style="stop-color:#D9E3E8"/>
								<stop  offset="1" style="stop-color:#D8E2E7"/>
							</radialGradient>
							<path id="SvgjsPath3762" class="st14" d="M26.8,25.5c0.1,0.2,0.1,0.4,0.1,0.6c0,0.5-0.2,0.9-0.5,1.3c-1.3,0-5.5,0.2-6.2-0.1
								c-0.9-0.5-1.7-2.4-1.8-2.9C21.7,22.6,24.1,22.9,26.8,25.5z"/>
						</g>
						<g id="svga-group-eyesiriswrapper-left" transform="matrix(1,0,0,1,0.75,0.5)">
							<g id="svga-group-eyesiriscontrol-left" transform="matrix(1,0,0,1,0,0)">
								<g id="svga-group-eyesiris-left" transform="matrix(1,0,0,1,0,0)">
									<path id="SvgjsPath3518" class="st15" d="M24,25.4c-0.3,1-1.4,1.7-2.4,1.4c-1-0.3-1.7-1.4-1.4-2.4c0.3-1,1.4-1.7,2.4-1.4
										C23.7,23.3,24.3,24.4,24,25.4z"/>
									<path id="SvgjsPath3519" class="st16" d="M24,25c-0.1,1.2-1,1.8-1.9,1.7c-0.9-0.1-1.6-0.7-1.7-1.8c0.3-0.1,0.7,0.1,1,0
										c0,0,0,0,0,0c0,0.4,0.3,0.8,0.8,0.8c0.4,0,0.8-0.3,0.9-0.7c0-0.1,0-0.1,0-0.2C23.3,25,23.7,24.9,24,25z"/>
									<path id="SvgjsPath3520" class="st17" d="M22.4,24.3c-0.4-0.1-0.9,0.1-1,0.6c-0.1,0.4,0.1,0.9,0.6,1c0.4,0.1,0.9-0.1,1-0.5
										C23.1,24.8,22.9,24.4,22.4,24.3z"/>
									<path id="SvgjsPath3521" class="st18" d="M22.4,24.3c-0.4-0.1-0.9,0.1-1,0.6c-0.1,0.4,0.1,0.9,0.6,1c0.4,0.1,0.9-0.1,1-0.5
										C23.1,24.8,22.9,24.4,22.4,24.3z"/>
									<path id="SvgjsPath3522" class="st19" d="M21.2,26.1c0,0.1-0.3,0.1-0.2-0.1c0-0.1,0.1-0.2,0.2-0.3c0.1-0.1,0.3,0,0.2,0.1
										C21.3,25.9,21.2,26,21.2,26.1L21.2,26.1z M21.6,25.9c-0.1,0.1-0.1,0.3-0.2,0.4c-0.1,0.1,0.2,0.2,0.2,0.1
										c0,0,0.1-0.3,0.1-0.3C21.8,25.9,21.7,25.8,21.6,25.9L21.6,25.9z M22,26.6c0.1-0.1,0.1-0.3,0.1-0.5c0-0.1-0.2-0.1-0.2,0
										c0,0.1,0,0.2,0,0.3C21.8,26.5,21.9,26.7,22,26.6L22,26.6z M22.3,26.1c0,0.1,0,0.3,0.1,0.4c0,0.1,0.3,0.1,0.2-0.1
										c0-0.1-0.1-0.2-0.1-0.4C22.5,25.9,22.3,25.9,22.3,26.1L22.3,26.1z"/>
									<path id="SvgjsPath3523" class="st20" d="M23.5,24.6c-0.2,0.1-0.6,0-0.8-0.3c-0.2-0.3-0.2-0.6,0.1-0.8
										c0.2-0.1,0.6,0,0.8,0.3C23.8,24.1,23.7,24.5,23.5,24.6z"/>
								</g>
							</g>
						</g>
						<g id="svga-group-eyesfront-left">
							<path id="SvgjsPath3787" class="st2" d="M16.7,24c0,4.5,2.6,10.2,5.9,10.2s5.9-3.6,5.9-8.2c0-4.5-2.6-8.2-5.9-8.2
								S16.7,19.5,16.7,24z M18.4,24.5c3.3-1.9,5.7-1.5,8.4,1.1c0.1,0.2,0.1,0.4,0.1,0.6c0,0.5-0.2,0.9-0.5,1.3
								c-1.3,0-5.5,0.2-6.2-0.1C19.3,26.9,18.5,24.9,18.4,24.5z"/>
							
								<radialGradient id="SvgjsPath3788_1_" cx="-146.9946" cy="444.0236" r="1.833" fx="-145.7058" fy="444.0273" gradientTransform="matrix(2.6995 5.615997e-02 -4.481997e-02 2.1595 440.6161 -925.219)" gradientUnits="userSpaceOnUse">
								<stop  offset="0" style="stop-color:#E1AC8F"/>
								<stop  offset="0.7" style="stop-color:#E1AC8F;stop-opacity:0.3"/>
								<stop  offset="1" style="stop-color:#F0C7B1;stop-opacity:0"/>
							</radialGradient>
							<path id="SvgjsPath3788" class="st21" d="M18.5,24.6c0.2,0.6,0.9,2.3,1.8,2.7c0.6,0.3,4.8,0.1,6.2,0.1
								c0.3-0.4,0.5-0.9,0.5-1.3c0-0.2,0-0.4-0.1-0.6c-2.7-2.5-5-2.9-8.3-1.1c0.6-1.9,2.8-3.2,5.3-3.3c3.1,0,5.5,2,5.6,4.4
								c0,2.4-2.5,4.4-5.5,4.4c-3.1,0-5.5-2-5.6-4.4C18.3,25.2,18.4,24.9,18.5,24.6z"/>
							
								<radialGradient id="SvgjsPath3793_1_" cx="-200.9419" cy="322.1503" r="2.4019" gradientTransform="matrix(2.8228 -0.1471 -0.148 -2.8056 637.1637 905.6575)" gradientUnits="userSpaceOnUse">
								<stop  offset="0.95" style="stop-color:#000000;stop-opacity:0"/>
								<stop  offset="1" style="stop-color:#000000;stop-opacity:0.2"/>
							</radialGradient>
							<path id="SvgjsPath3793" class="st22" d="M20.2,27.3c-0.9-0.5-1.7-2.4-1.8-2.9c3.3-1.9,5.7-1.5,8.4,1.1
								c0.1,0.2,0.1,0.4,0.1,0.6c0,0.5-0.2,0.9-0.5,1.3C25.1,27.4,20.9,27.7,20.2,27.3z"/>
							<path id="SvgjsPath3797" class="st12" d="M18.4,23.4c1.1-0.4,5.8-2.1,8.4,1.4C23.9,21.5,19.9,23.1,18.4,23.4z"/>
							<path id="SvgjsPath3798" d="M17.7,24.3c0.4,0.8,2.1,3.3,2.5,3.3c3.3,0.2,5.3-0.1,6.6-0.3c-0.5-0.1-5.8,0.3-6.5-0.1
								c-0.9-0.4-1.7-2.3-1.8-2.7c3.3-1.8,5.8-1.4,8.6,1.2C24.3,21.6,18.7,23.5,17.7,24.3z"/>
						</g>
					</g>
				</g>
				<g id="svga-group-eyes-right-move" transform="matrix(1,0,0,1,0,0)">
					<g id="svga-group-eyes-right" transform="matrix(1,0,0,1,0,0)">
						<g id="svga-group-eyesback-right">
							
								<radialGradient id="SvgjsPath3770_1_" cx="-190.6156" cy="324.7256" r="1.4534" gradientTransform="matrix(2.7464 0 0 -2.7464 563.0801 917.3802)" gradientUnits="userSpaceOnUse">
								<stop  offset="0" style="stop-color:#FFFFFF"/>
								<stop  offset="0.544" style="stop-color:#FDFEFE"/>
								<stop  offset="0.74" style="stop-color:#F6F8F9"/>
								<stop  offset="0.879" style="stop-color:#EAEFF2"/>
								<stop  offset="0.992" style="stop-color:#D9E3E8"/>
								<stop  offset="1" style="stop-color:#D8E2E7"/>
							</radialGradient>
							<path id="SvgjsPath3770" class="st23" d="M35.3,25.5c-0.1,0.2-0.1,0.4-0.1,0.6c0,0.5,0.2,0.9,0.5,1.3c1.3,0,5.5,0.2,6.2-0.1
								c0.9-0.5,1.7-2.4,1.8-2.9C40.4,22.6,38,22.9,35.3,25.5z"/>
						</g>
						<g id="svga-group-eyesiriswrapper-right" transform="matrix(1,0,0,1,-0.75,0.5)">
							<g id="svga-group-eyesiriscontrol-right" transform="matrix(1,0,0,1,0,0)">
								<g id="svga-group-eyesiris-right" transform="matrix(1,0,0,1,0,0)">
									<path id="SvgjsPath3524" class="st15" d="M42,25.4c-0.3,1-1.4,1.7-2.4,1.4c-1-0.3-1.7-1.4-1.4-2.4c0.3-1,1.4-1.7,2.4-1.4
										C41.7,23.3,42.3,24.4,42,25.4z"/>
									<path id="SvgjsPath3525" class="st16" d="M41.9,25c-0.1,1.2-1,1.8-1.9,1.7c-0.9-0.1-1.6-0.7-1.7-1.8c0.3-0.1,0.7,0.1,1,0
										c0,0,0,0,0,0c0,0.4,0.3,0.8,0.8,0.8c0.4,0,0.8-0.3,0.9-0.7c0-0.1,0-0.1,0-0.2C41.3,25,41.6,24.9,41.9,25z"/>
									<path id="SvgjsPath3526" class="st17" d="M40.4,24.3c-0.4-0.1-0.9,0.1-1,0.6c-0.1,0.4,0.1,0.9,0.6,1c0.4,0.1,0.9-0.1,1-0.5
										C41.1,24.8,40.8,24.4,40.4,24.3z"/>
									<path id="SvgjsPath3527" class="st18" d="M40.4,24.3c-0.4-0.1-0.9,0.1-1,0.6c-0.1,0.4,0.1,0.9,0.6,1c0.4,0.1,0.9-0.1,1-0.5
										C41.1,24.8,40.8,24.4,40.4,24.3z"/>
									<path id="SvgjsPath3528" class="st19" d="M39.2,26.1c0,0.1-0.3,0.1-0.2-0.1c0-0.1,0.1-0.2,0.2-0.3c0.1-0.1,0.3,0,0.2,0.1
										C39.3,25.9,39.2,26,39.2,26.1L39.2,26.1z M39.5,25.9c-0.1,0.1-0.1,0.3-0.2,0.4c-0.1,0.1,0.2,0.2,0.2,0.1
										c0,0,0.1-0.3,0.1-0.3C39.8,25.9,39.6,25.8,39.5,25.9L39.5,25.9z M40,26.6c0.1-0.1,0.1-0.3,0.1-0.5c0-0.1-0.2-0.1-0.2,0
										c0,0.1,0,0.2,0,0.3C39.8,26.5,39.9,26.7,40,26.6L40,26.6z M40.2,26.1c0,0.1,0,0.3,0.1,0.4c0,0.1,0.3,0.1,0.2-0.1
										c0-0.1-0.1-0.2-0.1-0.4C40.5,25.9,40.2,25.9,40.2,26.1L40.2,26.1z"/>
									<path id="SvgjsPath3529" class="st20" d="M41.5,24.6c-0.2,0.1-0.6,0-0.8-0.3c-0.2-0.3-0.2-0.6,0.1-0.8
										c0.2-0.1,0.6,0,0.8,0.3C41.7,24.1,41.7,24.5,41.5,24.6z"/>
								</g>
							</g>
						</g>
						<g id="svga-group-eyesfront-right">
							<path id="SvgjsPath3808" class="st2" d="M39.5,17.9c-3.2,0-5.9,3.7-5.9,8.2s2.6,8.2,5.9,8.2c3.2,0,5.9-5.3,5.9-9.8
								C45.4,19.9,42.8,17.9,39.5,17.9z M41.9,27.3c-0.6,0.3-4.8,0.1-6.2,0.1c-0.3-0.4-0.5-0.9-0.5-1.3c0-0.2,0-0.4,0.1-0.6
								c2.7-2.6,5.1-2.9,8.4-1.1C43.6,24.9,42.8,26.9,41.9,27.3z"/>
							
								<radialGradient id="SvgjsPath3809_1_" cx="-151.9786" cy="444.1417" r="1.833" fx="-150.6897" fy="444.1454" gradientTransform="matrix(-2.6995 5.615997e-02 4.481997e-02 2.1595 -391.9628 -925.1941)" gradientUnits="userSpaceOnUse">
								<stop  offset="0" style="stop-color:#E1AC8F"/>
								<stop  offset="0.7" style="stop-color:#E1AC8F;stop-opacity:0.3"/>
								<stop  offset="1" style="stop-color:#F0C7B1;stop-opacity:0"/>
							</radialGradient>
							<path id="SvgjsPath3809" class="st24" d="M43.6,24.6c-0.2,0.6-0.9,2.3-1.8,2.7c-0.6,0.3-4.8,0.1-6.2,0.1
								c-0.3-0.4-0.5-0.9-0.5-1.3c0-0.2,0-0.4,0.1-0.6c2.7-2.5,5-2.9,8.3-1.1c-0.6-1.9-2.8-3.2-5.3-3.3c-3.1,0-5.5,2-5.6,4.4
								c0,2.4,2.5,4.4,5.5,4.4c3.1,0,5.5-2,5.6-4.4C43.8,25.2,43.7,24.9,43.6,24.6z"/>
							
								<radialGradient id="SvgjsPath3814_1_" cx="-204.8502" cy="322.3599" r="2.4019" gradientTransform="matrix(-2.8228 -0.1471 0.148 -2.8056 -586.1149 905.6704)" gradientUnits="userSpaceOnUse">
								<stop  offset="0.95" style="stop-color:#000000;stop-opacity:0"/>
								<stop  offset="1" style="stop-color:#000000;stop-opacity:0.2"/>
							</radialGradient>
							<path id="SvgjsPath3814" class="st25" d="M41.9,27.3c0.9-0.5,1.7-2.4,1.8-2.9c-3.3-1.9-5.7-1.5-8.4,1.1
								c-0.1,0.2-0.1,0.4-0.1,0.6c0,0.5,0.2,0.9,0.5,1.3C37,27.4,41.2,27.7,41.9,27.3z"/>
							<path id="SvgjsPath3818" class="st12" d="M35.3,24.8c2.6-3.5,7.3-1.8,8.4-1.4C42.2,23.1,38.2,21.5,35.3,24.8z"/>
							<path id="SvgjsPath3819" d="M44.4,24.3C44,25,42.4,27.6,42,27.6c-3.3,0.2-5.3-0.1-6.6-0.3c0.5-0.1,5.8,0.3,6.5-0.1
								c0.9-0.4,1.7-2.3,1.8-2.7c-3.3-1.8-5.8-1.4-8.6,1.2C37.8,21.6,43.4,23.5,44.4,24.3z"/>
						</g>
					</g>
				</g>
				<g id="svga-group-facehighlight-single">
					
						<radialGradient id="SvgjsPath2906_1_" cx="-194.5787" cy="320.3169" r="4.4567" gradientTransform="matrix(2.7 0 0 -2.7 556.4836 899.9012)" gradientUnits="userSpaceOnUse">
						<stop  offset="0" style="stop-color:#FFE4D6;stop-opacity:0.5"/>
						<stop  offset="0.9" style="stop-color:#F0C7B1;stop-opacity:0"/>
					</radialGradient>
					<path id="SvgjsPath2906" class="st26" d="M44.5,35c0,7.4-6,13.4-13.3,13.4c-7.4,0-13.4-6-13.4-13.3c0-7.4,6-13.4,13.3-13.4
						C38.5,21.7,44.5,27.7,44.5,35z"/>
					
						<radialGradient id="SvgjsPath2910_1_" cx="-194.5787" cy="327.5636" r="4.0218" gradientTransform="matrix(2.7 0 0 -2.7 556.4836 899.9012)" gradientUnits="userSpaceOnUse">
						<stop  offset="0" style="stop-color:#FFE4D6;stop-opacity:0.5"/>
						<stop  offset="0.9" style="stop-color:#F0C7B1;stop-opacity:0"/>
					</radialGradient>
					<path id="SvgjsPath2910" class="st27" d="M43.4,15.5c0,6.8-5.5,12.2-12.2,12.2c-6.8,0-12.2-5.5-12.2-12.2S24.4,3.3,31.1,3.3
						C37.9,3.3,43.4,8.7,43.4,15.5z"/>
				</g>
				<g id="svga-group-eyebrows-left-move" transform="matrix(1,0,0,1,2,1)">
					
						<g id="svga-group-eyebrows-left-rotate" transform="matrix(0.9914448857307434,0.13052619993686676,-0.13052619993686676,0.9914448857307434,9.78549575805664,-8.954087257385254)">
						
							<g id="svga-group-eyebrows-left" transform="matrix(1.1000003000000003,0,0,1.1000003000000003,-7.156857408007838,-7.130099515234392)">
							<path id="SvgjsPath3826" class="st1" d="M13.8,30.6c2.3,1.2,4.9,1.4,10.3,2.1c0.2,0,0.3,0.1,0.4,0.1c0.5,0,1-0.5,0.9-1
								C25.2,30.1,16.1,30.9,13.8,30.6z"/>
						</g>
					</g>
				</g>
				<g id="svga-group-eyebrows-right-move" transform="matrix(1,0,0,1,-2,1)">
					
						<g id="svga-group-eyebrows-right-rotate" transform="matrix(0.9914448857307434,-0.13052619993686676,0.13052619993686676,0.9914448857307434,-8.094550132751465,17.157333374023438)">
						
							<g id="svga-group-eyebrows-right" transform="matrix(1.1000003000000003,0,0,1.1000003000000003,-12.843202591992224,-7.130099515234392)">
							<path id="SvgjsPath3827" class="st1" d="M62.1,14.2c-2.3,1.2-4.9,1.4-10.3,2.1c-0.2,0-0.3,0.1-0.4,0.1c-0.5,0-1-0.5-0.9-1
								C50.7,13.7,59.8,14.5,62.1,14.2z"/>
						</g>
					</g>
				</g>
				<g id="svga-group-nose-single-move" transform="matrix(1,0,0,1,0,0)">
					<g id="svga-group-nose-single" transform="matrix(1,0,0,1,0,0)">
						<path id="SvgjsPath3423" class="st13" d="M28.6,36.5c1.1-1.1,4.2-0.8,5.1-0.1C31.8,37.4,30.6,37.1,28.6,36.5z"/>
						<path id="SvgjsPath3424" class="st12" d="M31.1,37.3c-0.4,0-0.9-0.2-1.3-0.3c-0.2-0.1-0.3-0.1-0.5-0.1c-0.2,0-0.6,0-0.8-0.1
							c-0.2-0.1,0-0.4,0.2-0.4c0.3,0,0.6,0,0.9,0.1c0.5,0.1,0.9,0.4,1.4,0.4c0.4,0,0.8-0.2,1.2-0.3c0.3-0.1,1.2-0.4,1.4-0.1
							c0.1,0.2-0.1,0.3-0.3,0.3c-0.3,0-0.5,0.1-0.8,0.2C32.2,37.1,31.7,37.3,31.1,37.3z"/>
						<path id="SvgjsPath3425" class="st28" d="M31.1,35.8c0.2,0,0.7-0.2,0.6-0.7c-0.5-2.8-0.6-7.6-0.6-7.6s-0.4,5.6-0.7,7.6
							C30.4,35.6,30.9,35.8,31.1,35.8z"/>
					</g>
				</g>
				<g id="svga-group-beardwrap" transform="matrix(1,0,0,1,0,0)">
					<g id="svga-group-beard-single-move" transform="matrix(1,0,0,1,0,0)">
						<g id="svga-group-beard-single" transform="matrix(1,0,0,1,0,0)">
							<path id="SvgjsPath3042" class="st1" d="M31.1,3.8L31.1,3.8L31.1,3.8L31.1,3.8z"/>
						</g>
					</g>
				</g>
				<g id="svga-group-mustache-single-move" transform="matrix(1,0,0,1,0,0)">
					<g id="svga-group-mustache-single" transform="matrix(1,0,0,1,0,0)">
						<path id="SvgjsPath3040" class="st1" d="M31.1,3.8L31.1,3.8L31.1,3.8L31.1,3.8z"/>
					</g>
				</g>
				<g id="svga-group-hair-front" transform="matrix(1,0,0,1,0,0)">
					<path id="SvgjsPath3386" class="st29" d="M52.1,14.4c-0.1-1.1-0.5-2.7-0.8-3.7c-0.4,0.6-0.4,0.6-0.6,1
						c-0.1-0.4-0.5-4.5-2.1-6.9c-0.2,0.6,0,1.3-0.4,1.8c-0.8-1.7-2.1-4.7-4.8-6.7c0.3,0.7,0.1,1,0.2,1.2c-0.8-1.2-1.8-1.8-3.4-2.7
						c0,0.6,0.1,0.9,0.1,0.9c-0.6-0.7-1.9-2.5-3.6-3.6c0.1,0.3-0.1,0.9,0,1.2c-0.6-1.2-2.2-3.4-3.9-3.2c-0.5-0.5-0.9-1.3-1.3-1.8
						c-0.3,1.4-2.5,4.5-4.8,5.9c0.1-0.6,0-1.1-0.2-1.7C26.1-3,24.8-1.4,23.8-1c0.1-0.4,0-1.2,0-1.2c-0.5,0.7-1,1.1-1.7,1.7
						c0-0.4,0.2-1.2,0.3-1.6c-1.1,0.5-2.1,1.7-2.9,2.7c-0.1-0.5,0.1-1.6,0.3-1.9c-3.8,2.5-5.7,4.6-7.4,9.5c-0.1-0.2-0.2-0.5-0.2-1.4
						c-2.2,3.6-3.4,6-1.1,14.9c-0.5-0.3-0.7-0.5-1.1-0.9c0.6,3.7,1.4,4.9,4.1,8.1c1.4-1.6,0.6-4.4,0.4-5.7c0-2,0.6-1.7,0.7-2.6
						c0-0.4,0.3-1.1,0.2-1.5c-0.2-1.6,0.4-4.6,1.1-6.5c1.2-1.7,2.5-2.9,4.3-3.9c2.7-0.5,5.3,0.6,6.1,0.8c1.4,0.4,7.1,0.4,8.5,0
						c1-0.3,3.7-1.4,6.5-0.7c2.1,1.2,3.3,2.4,4.2,4.6c0.6,1.8,0.9,4,0.7,5.4c0,0.4,0.1,1.4,0.2,1.8c0,0.4,0.5,1.2,0.6,1.6
						c0.4,1.5-0.4,5.5-0.4,5.5c0,0.6,0,1.1,0.2,1.7c2-1.3,2.2-2,2.4-3c0.2-0.8,1.5-3.8,1.5-4.3c-0.3,0.3-0.8,0.6-1.1,0.8
						c0.2-0.9,1.3-2.6,1.5-3.6C52.2,17.6,52.2,16.2,52.1,14.4z"/>
					<path id="SvgjsPath3387" class="st1" d="M52.1,14.4c-0.1-1.1-0.5-2.7-0.8-3.7c-0.4,0.6-0.4,0.6-0.6,1c-0.1-0.4-0.5-4.5-2.1-6.9
						c-0.2,0.6,0,1.3-0.4,1.8c-0.8-1.7-2.1-4.7-4.8-6.7c0.3,0.7,0.1,1,0.2,1.2c-0.8-1.2-1.8-1.8-3.4-2.7c0,0.6,0.1,0.9,0.1,0.9
						c-0.6-0.7-1.9-2.5-3.6-3.6c0.1,0.3-0.1,0.9,0,1.2c-0.6-1.2-2.2-3.4-3.9-3.2c-0.5-0.5-0.9-1.3-1.3-1.8c-0.3,1.4-2.5,4.5-4.8,5.9
						c0.1-0.6,0-1.1-0.2-1.7C26.1-3,24.8-1.4,23.8-1c0.1-0.4,0-1.2,0-1.2c-0.5,0.7-1,1.1-1.7,1.7c0-0.4,0.2-1.2,0.3-1.6
						c-1.1,0.5-2.1,1.7-2.9,2.7c-0.1-0.5,0.1-1.6,0.3-1.9c-3.8,2.5-5.7,4.6-7.4,9.5c-0.1-0.2-0.2-0.5-0.2-1.4
						c-2.2,3.6-3.4,6-1.1,14.9c-0.5-0.3-0.7-0.5-1.1-0.9c0.5,3.6,1.3,4.9,3.9,7.9c-1.2-2.1-2.8-3.9-3.3-6.4c0.7,0.3,1.6,1,2.3,1.3
						c-1.6-4.6-3.3-10.4-1-14.7c0.3,1.3,1.2,2.8,1.8,3.8c-1.4-3.9,1.8-8.7,4.1-11.7c0,1.6-0.3,3.6,0.3,5.2c0-2.3,1.6-3.6,2.6-5.5
						c0,1.3-0.3,2.3,0.3,3.6c0.3-1.6,0.7-3.3,1.6-4.6c0.7,1.3,0.3,2.6,1,3.9c0-2,1-2.9,1.3-4.6c0.7,1.7,1.3,2,1.6,3.3
						c-0.3-3.6,4.6-3.9,5-7.5c0.3,2.3,0.9,3.9,0.6,6.5c1.3-1.6,2-3.6,2.3-5.9c2.3,2,1.6,4.6,2.6,6.8c0.7-1.3,0.7-2.9,1-4.6
						c1.3,2.3,2.6,4.9,3.6,7.5c0.3-1.6,0.9-2.4,0-4.9C43.8,2.1,45.5,5,45.1,8c0.3-1.6,0.7-3.3,0.7-4.9c0.3,3.6,2.6,6.8,2.3,10.8
						c0.7-1.6,1.3-3.3,1.3-5.2c0.3,3.3,0.9,6.8,0,10.2c0.5-1.2,1.3-2.4,1.3-4c1,3.6-2.3,6.5-2,10.1c0-0.6,0.9-0.9,1.2-1.4
						c0-0.1,0.1-0.2,0.1-0.3c0,0.1,0,0.2-0.1,0.3c-0.5,1.8-1,3.5-1.6,5.2c1.2-0.9,1.3-1.5,1.5-2.3c0.2-0.8,1.5-3.8,1.5-4.3
						c-0.3,0.3-0.8,0.6-1.1,0.8c0.2-0.9,1.3-2.6,1.5-3.6C52.2,17.6,52.2,16.2,52.1,14.4z"/>
					<path id="SvgjsPath3388" d="M51.2,10c-0.1,0.5-0.2,0.6-0.4,1.2c-0.2-1.8-1-4.8-2.4-6.9c0,0.7-0.1,1.1-0.2,1.7
						c-0.4-1.4-2.1-4.6-5.1-6.6c0,0.1,0.1,0.2,0.1,0.3v0c0.1,0.3,0.2,0.5,0.2,0.8c-1.2-1.6-2.4-1.8-3.5-2.6c0.1,0.3,0.1,0.6,0.1,0.7
						c-1.3-1.8-2.3-2.5-3.5-3.2c0,0.2,0,0.8,0,1.2c-0.8-1.7-1.5-2.9-3.9-3.2c-0.2-0.3-0.8-1.3-1.3-2c-0.8,2.6-2.8,4.5-4.6,6
						c0-0.6-0.1-1.2-0.2-1.8c-0.7,1.3-1.3,2-2.7,3.1c0-0.2,0.1-1,0-1.5c-0.4,0.5-1,1.2-1.7,1.8c0,0,0.4-1.6,0.4-1.6
						c-0.1,0-0.1,0-0.2,0.1c-0.3,0.1-1.7,1-2.9,2.5c0.1-1.1,0.3-1.5,0.4-1.9c-3.6,2.1-6.5,5.3-7.6,9.4c-0.1-0.6-0.1-1.1-0.1-1.3
						c-1.7,2.1-2.5,4.2-2.6,4.8c-0.7,3,0.1,8.1,1.1,10.2c-0.6-0.5-0.1,0-1-0.9c0,1.5,0.3,2.6,0.9,3.9c0.8,1.9,1.9,3,3.4,4.4
						c-1.5-1.9-3.6-4.5-4-7.9c0.3,0.3,0.4,0.4,0.9,0.7h0c0,0,0,0,0,0c0.2,0.1,0.1,0.1,0.3,0.2c-2.4-8.9-0.7-12.4,0.8-15.1
						c0,1.3,0.3,1.9,0.7,2.6c-0.2-0.6-0.2-0.4-0.4-1.1c1.2-3.8,4-6.8,7-9.4c0.1-0.1,0.2-0.1,0.2-0.2c-0.1,0.3-0.3,1.1-0.3,1.6
						c-0.7,1-0.8,1.8-0.9,2.2c0.1-0.3,0.2-0.9,0.9-1.7v0c0.8-1.3,2.4-2.6,3-3c-0.4,1.4-0.4,2-0.4,3c0.1-0.6,0.1-0.6,0.2-1.4
						c0.5-0.4,1.1-1,1.6-1.6c0,0.8,0,1.8-0.4,2.7c0.4-0.5,0.5-1.2,0.5-1.5c0.4-0.3,1.5-0.7,2.6-2.7c0.3,1.7,0.1,2.7-0.2,3.4
						c0.2-0.4,0.5-0.9,0.5-1.9C29-3.7,30.6-5,31.5-7.6c0-0.1,0.1-0.2,0.1-0.3C32-7.2,34-4.1,33.6-3.2c0.5-0.5-0.4-2.4-0.8-3.1
						c2.5,0.6,2.7,1.3,4.4,4.8c-0.2-0.7-0.4-1.2-0.5-1.5c0-0.6,0-0.9,0-1.2c1.7,1.3,4.5,4.4,4.5,6.8c0.1-0.9,0.1-1.7-0.6-3
						c-0.1-0.2-0.2-0.3-0.3-0.5c0-0.2-0.1-0.6-0.1-0.6c0.6,0.6,1.9,0.8,3.4,3.1c0.2,0.3,1.1,2.1,1.5,2.7c-0.8-2.2-1-2.5-1.3-3
						c-0.1-0.6-0.1-0.5-0.3-1.1c3.4,3.4,4.7,5.5,5.2,10.3c0.1-1.3,0-2.6-0.3-3.8c0.1-0.5,0.2-1,0.2-1.5c0.2,0.5,1.1,2.8,1.6,5
						c0.4,2,0.4,3.2,0.3,4.5c0.3-1.4,0.4-2.6,0.3-3.1c0.1-0.2,0.2-0.4,0.3-0.6c0.6,3.4,1.6,6.3-1.2,12.2c0.3-0.2,0.9-0.5,1.2-0.9
						c0,0-1,2.3-1.5,3.8c-0.9,2.3-0.8,2-2.3,3.2c1.7-0.7,2.1-1.7,2.7-3.1c1-3,0.9-2,1.7-4.9c-0.4,0.5-0.6,0.8-1.1,1.2
						C53.8,17.1,52.1,13.3,51.2,10z"/>
				</g>
				<g id="svga-group-glasses-single-move" transform="matrix(1,0,0,1,0,0)">
					<g id="svga-group-glasses-single" transform="matrix(1,0,0,1,0,0)">
						<path id="SvgjsPath3516" class="st30" d="M31.1,3.8L31.1,3.8L31.1,3.8L31.1,3.8z"/>
					</g>
				</g>
			</g>
		</g>
	</g>
	<rect id="SvgjsRect1057" x="5.4" y="65.7" class="st31" width="65.2" height="4.9"/>
</g>
</svg>
