<?xml version="1.0" encoding="utf-8"?>
<!-- Generator: Adobe Illustrator 23.0.2, SVG Export Plug-In . SVG Version: 6.00 Build 0)  -->
<svg version="1.1" id="Capa_1" xmlns="http://www.w3.org/2000/svg" xmlns:xlink="http://www.w3.org/1999/xlink" x="0px" y="0px"
	 viewBox="0 0 600 600" style="enable-background:new 0 0 600 600;" xml:space="preserve">
<style type="text/css">
	.st0{fill:#8D8B90;}
	.st1{fill:#2A232B;}
	.st2{fill:#F0C7B1;}
	.st3{fill:#FFE4D6;}
	.st4{fill:#E1AC8F;}
	.st5{fill:none;stroke:#C27B55;stroke-width:1.5;}
	.st6{fill:url(#SvgjsPath3398_1_);}
	.st7{fill:#386E77;}
	.st8{fill:#4D7E86;}
	.st9{fill:#265E68;}
	.st10{fill:#0C4049;}
	.st11{fill:#F0C7B1;stroke:#C27B55;stroke-width:1.5;}
	.st12{fill:#C27B55;}
	.st13{fill:#E8B9A0;}
	.st14{fill:url(#SvgjsPath3762_1_);}
	.st15{stroke:#000000;stroke-width:0.5;}
	.st16{fill:#0F0F0F;}
	.st17{opacity:0.9;enable-background:new    ;}
	.st18{fill:none;stroke:#000000;stroke-width:0.75;}
	.st19{opacity:0.5;fill:#FFFFFF;enable-background:new    ;}
	.st20{opacity:0.8;fill:#FFFFFF;enable-background:new    ;}
	.st21{fill:url(#SvgjsPath3788_1_);}
	.st22{fill:url(#SvgjsPath3793_1_);}
	.st23{fill:url(#SvgjsPath3770_1_);}
	.st24{fill:url(#SvgjsPath3809_1_);}
	.st25{fill:url(#SvgjsPath3814_1_);}
	.st26{fill:url(#SvgjsPath2906_1_);}
	.st27{fill:url(#SvgjsPath2910_1_);}
	.st28{opacity:0.2;fill:#FFF5EF;enable-background:new    ;}
	.st29{fill:#1B141C;}
	.st30{fill:#26120B;}
	.st31{display:none;opacity:0.5;fill:#ECF0F1;enable-background:new    ;}
	.st32{fill:#333333;}
	.st33{font-family:'Roboto-Regular';}
	.st34{font-size:30px;}
</style>
<g id="svga-group-wrapper">
	<g id="svga-group-backs-single">
		<path id="SvgjsPath3394" class="st0" d="M675,675H-75V-75h750V675z"/>
	</g>
	<g id="svga-group-humanwrap-move" transform="matrix(1,0,0,1,0,0)">
		<g id="svga-group-humanwrap" transform="matrix(0.8999995000000002,0,0,0.8999995000000002,9.98618274316405,10.8416557705078)">
			<g id="svga-group-hair-back-move" transform="matrix(1,0,0,1,0,0)">
				<g id="svga-group-hair-back" transform="matrix(1,0,0,1,0,0)">
					<path id="SvgjsPath3384" class="st1" d="M323.7,325.6h-3v-3h3V325.6z"/>
				</g>
			</g>
			<g id="svga-group-humanbody-single">
				<path id="SvgjsPath2914" class="st2" d="M608.4,623.4c-6.6-14.2-24.6-35.3-44.6-41.2c-24.7-7.2-80.5-15.9-101.2-20.8
					c-16.6-3.9-50-33.9-61.7-44c-2.1-1.8-3.8-5.5-3.9-8.3c-0.4-32.6,12.6-119.2,12.6-119.2h-87.5h-87.5c0,0,13,86.6,12.6,119.2
					c0,2.8-1.8,6.5-3.9,8.3c-11.7,10.1-45.1,40.1-61.7,44c-20.7,4.8-76.5,13.9-101.2,21.1c-20,5.8-38,26.6-44.6,40.9
					c-11.1,24-13.8,67.5-13.8,105h300h300C622.2,690.9,619.6,647.5,608.4,623.4z"/>
				<path id="SvgjsPath2915" class="st3" d="M499.7,576.3c73,10.6,103.8,26.1,113.4,152.2h9.1c0-37.5-2.6-81-13.7-105
					c-6.6-14.2-24.6-35.3-44.6-41.2c-24.7-7.2-80.5-15.9-101.2-20.8c-16.6-3.9-54.7-36.2-64.9-49.1c10.1,14.1,38.4,46.8,63.2,55.4
					C472.8,571.9,482.6,573.8,499.7,576.3z M183.5,567.8c24.8-8.6,53.1-41.3,63.2-55.4c-10.2,12.8-48.3,45.2-64.9,49
					c-20.7,4.8-76.5,13.9-101.2,21.1c-20,5.8-38,26.6-44.6,40.9c-11.1,24-13.7,67.5-13.7,105h9.2c9.6-125.2,40.4-141.5,113.4-152.2
					C161.8,573.8,171.6,571.9,183.5,567.8z"/>
				<path id="SvgjsPath2916" class="st4" d="M309.1,617c0,0-15.2-4.8-21.2-7.1c-31.3-12-133.2-19.8-133.2-19.8s107.3,4.3,130.9,8.3
					c-1.4-14.3-9.1-60-9.1-60s15.4,50.4,19.2,63.2C297.8,608.3,309.1,617,309.1,617z M341.5,612.9c-0.3,0.2-0.6,0.5-0.9,0.8
					C341,613.5,341.3,613.2,341.5,612.9z M309.1,617c0,0,8.7,9,13,9.1c5.7,0.2,14.5-8.7,18.5-12.3c-3.8,2.9-12.5,4.2-15.9,4.3
					C320.7,618.2,309.1,617,309.1,617z M372.2,594.4c-4.6,0.7-13.2,2.4-13.2,2.4l6.9-44.7c-1.9,9.2-13.4,48.6-24.4,60.8
					c5.7-4.8,18.5-7.2,25-8.1c30.7-4.5,30.7-4.4,123.2-14.8C489.7,590,402.5,589.5,372.2,594.4z"/>
				<path id="SvgjsPath2917" class="st5" d="M608.4,623.4c-6.6-14.2-24.6-35.3-44.6-41.2c-24.7-7.2-80.5-15.9-101.2-20.8
					c-16.6-3.9-50-33.9-61.7-44c-2.1-1.8-3.8-5.5-3.9-8.3c-0.4-32.6,12.6-119.2,12.6-119.2h-87.5h-87.5c0,0,13,86.6,12.6,119.2
					c0,2.8-1.8,6.5-3.9,8.3c-11.7,10.1-45.1,40.1-61.7,44c-20.7,4.8-76.5,13.9-101.2,21.1c-20,5.8-38,26.6-44.6,40.9
					c-11.1,24-13.8,67.5-13.8,105h300h300C622.2,690.9,619.6,647.5,608.4,623.4z"/>
			</g>
			<g id="svga-group-chinshadow-single">
				
					<linearGradient id="SvgjsPath3398_1_" gradientUnits="userSpaceOnUse" x1="96.5053" y1="533.3041" x2="96.5053" y2="573.3041" gradientTransform="matrix(2.7 0 0 -2.7 61.5946 1977.0131)">
					<stop  offset="0" style="stop-color:#E1AC8F;stop-opacity:0.8"/>
					<stop  offset="0.7" style="stop-color:#C27B55"/>
				</linearGradient>
				<path id="SvgjsPath3398" class="st6" d="M322.3,539.7c24.5,0,50.6-14.8,72.6-32c0-20.1,4.4-57.3,8-84.6
					c-46.1-6.7-115.2-6.8-161.3-0.5c3.6,26.9,7.9,63.6,8,84.1C271.5,524.4,297.7,539.7,322.3,539.7z"/>
			</g>
			<g id="svga-group-clothes-single">
				<path id="SvgjsPath3390" class="st7" d="M357.6,731.8c-57.4,0-124.4-0.2-204.7-0.7l-71-0.4c-42.9-0.2-45.4-0.3-50.7-0.3l-14.7,0
					C2.8,604.8,59.7,571.8,147.8,560.3c23.4-3.3,46.3-9.3,64.4-20.9c49,66.7,194.4,52.7,219.3-1.9c4.2,1.6,7.6,3.6,11.9,5.2
					c14,10.3,33.2,17.5,52.9,18.6c78,4.3,133.3,39,132.2,163.9c0,0.5,0,3.5,0,4.5c-37.5,0-51.6,0.4-81.1,0.8
					C507.3,731,457.6,731.8,357.6,731.8C357.6,731.8,357.6,731.8,357.6,731.8z"/>
				<path id="SvgjsPath3391" class="st8" d="M625.4,728c-1.2-22.2-12.2-84.2-31.1-112.6c-37.4-56.4-126.8-36.6-147.4-59.1
					c-15,30.5-74.9,49.8-94.8,52.6c57.5-19.1,81.7-32.9,91.3-65.6c19.2,25,123.2,5.9,164.2,73C619.5,636,630.9,698.5,625.4,728z
					 M189.6,557c4.1-0.9,6.1-3.7,10.1-4.8l-4.3-5.7c-27.1,21.2-128.7,7.9-163.6,72.1c-11,20.2-18.4,68.4-12.6,109.3
					c1.6-25.2,2.4-78.9,21.3-107.4c34-51.2,95.9-37.7,142.9-59.3c20.9,25.8,53.7,38.5,87,43.7C228.7,594,204.7,575.6,189.6,557z"/>
				<path id="SvgjsPath3392" class="st9" d="M428.1,543.8c-16.6,34.5-142.1,74.8-212.8,2.6c-4.4,1.9-17.6,6.3-17.6,6.3
					c51.5,70.2,202.5,70.6,242.7-0.3C440.3,552.4,432.2,545.9,428.1,543.8z"/>
				<path id="SvgjsPath3393" class="st10" d="M431.3,537.1c-28.2,56.5-175.2,64.5-219,1.9c-16,4.7-31.4,14.8-46.9,17.3
					C72.6,570.2,4.1,577.1,16.2,730.7c29.8,0-19.8-0.2,136.7,0.6c370.8,2.1,358.7-1.4,475.8-1.4c0.1-0.4,0-4.4,0.1-4.8
					c6.3-169.3-92.6-159.3-159.4-171c-9.4-2.2-18.2-8.3-25.9-11.8C439.3,540.5,435.6,538.7,431.3,537.1z M211.2,540.9
					c38.9,70.2,192.7,56.1,222.3,0.3c3.6,1.5,4.5,2.1,8.7,3.6c-30.7,64.5-182.8,85-245,3.5C197.7,548.1,206.8,542.5,211.2,540.9z
					 M19.7,728.4c-7.3-79.3,5.4-144.1,98.3-160c30.8-5.7,49.7-5.9,76.2-17.4c50.3,82.2,216.3,69.5,250.8-3.9
					c5,4.2,12.7,9.1,22.2,11.4c54.3,12.9,164.5-2.7,158.7,170C463.7,726.3,329.3,721.4,19.7,728.4z"/>
			</g>
			<g id="svga-group-head" transform="matrix(1,0,0,1,0,0)">
				<g id="svga-group-ears-left-move" transform="matrix(1,0,0,1,0,0)">
					<g id="svga-group-ears-left" transform="matrix(0.9499999,0,0,0.9499999,2.172758251757813,4.849912043554681)">
						<path id="SvgjsPath3450" class="st11" d="M168.9,285.3c-4.1-7.4-16.9-25.4-29.9-21c-8.2,2.8-9.9,12-11.2,20.1
							c-1.8,10.8,1.4,32.1,4.2,39.8c2.6,7.4,10.6,21.7,15.8,27.1c6.4,6.7,14.3,28,15.6,30.2c2,3.5,4.6,8.7,12.4,8.1
							c8.6-0.7,13.8-5.5,17.6-6.4C202.7,381.1,179.7,304.4,168.9,285.3z"/>
						<path id="SvgjsPath3451" class="st12" d="M160.5,329.9c-0.4-1.7,0-4.7,0.4-7.5c0.4-2.6,0.7-5,0.5-6.8
							c-0.8-6.5-5.3-18.7-8.3-25.4c-3.4-7.7-8.9-17.3-15.8-19.8c-2.9-1-4.7,0.2-5.8,1.5c-0.8,0.9-1,2-0.7,2.1
							c0.3,0.1,0.9-0.8,1.7-1.6c0.7-0.7,1.7-1.3,3.2-1.2c-0.6,3.2-3.5,20.6-2.2,32.5c1,9.3,4.8,16.3,5.4,17.4
							c0.1,1.1,0.2,2.2,0.4,3.2c2.8,13.6,14.9,29.2,19.1,34.2c0.8,0.9,1.6,1.5,1.8,1.3c0.2-0.2-0.3-1.2-1.1-2.1
							c-4.2-5-16.2-20.5-18.9-33.7c-2.9-14,7-34.7,9.1-39.1c1.1,2.1,2.1,4,2.8,5.7c0.6,1.3,1.2,2.8,1.9,4.4c-1.3,2.3-10.3,19-7,32.3
							c1.2,4.9,6.7,11.3,10.3,13c2,1,2.8,2.4,3.6,4c1,1.9,2.2,4.1,5.5,5.7c0.7,0.3,1.3,0.5,1.8,0.5c0.9,0,1.7-0.4,2.2-0.9
							c0.1,0.8,0.1,1.9,0,2.9c0,1.3,0.1,2.3,0.4,2.4c0.3,0,0.6-1,0.6-2.3c0-1.6,0-3.5-0.2-4.5c-0.7-2.8-3-5.9-5.4-9.1
							C163.6,335.9,161.1,332.6,160.5,329.9z M138.8,317.8c-6.5-21.4,2-39.9,3.4-42.8c2.6,2.5,4.8,5.8,6.6,9
							C147.5,286.5,139.1,303.4,138.8,317.8z M167,349.1c-3-1.4-4-3.3-5-5.2c-0.9-1.7-1.8-3.4-4.1-4.5c-0.5-0.2-1.1-0.6-1.6-1
							c-7.5-18.8,0.8-27,2.9-28.7c0.6,2.3,1.1,4.4,1.3,6.1c0.2,1.6-0.2,4-0.5,6.4c-0.4,3-0.9,6-0.4,8c0.7,2.9,3.2,6.4,5.7,9.7
							c2.2,3,4.4,6,5.2,8.5C170,348.9,169,350.1,167,349.1z"/>
					</g>
				</g>
				<g id="svga-group-ears-right-move" transform="matrix(1,0,0,1,0,0)">
					<g id="svga-group-ears-right" transform="matrix(0.9499999,0,0,0.9499999,7.814175784570324,4.849912043554681)">
						<path id="SvgjsPath3452" class="st11" d="M498,285.3c4.1-7.4,16.9-25.4,29.9-21c8.3,2.8,9.9,12,11.2,20.1
							c1.8,10.8-1.4,32.1-4.2,39.8c-2.6,7.4-10.6,21.7-15.8,27.1c-6.4,6.7-14.3,28-15.6,30.2c-2,3.5-4.6,8.7-12.4,8.1
							c-8.6-0.7-13.8-5.5-17.6-6.4C464.3,381.1,487.3,304.4,498,285.3z"/>
						<path id="SvgjsPath3453" class="st12" d="M501,339.2c-2.4,3.3-4.7,6.4-5.4,9.1c-0.3,0.9-0.3,2.9-0.2,4.5
							c0,1.3,0.3,2.3,0.6,2.3s0.4-1.1,0.4-2.4c0-1,0-2.1,0-2.9c0.5,0.5,1.2,0.9,2.2,0.9c0.5,0,1.2-0.1,1.8-0.5
							c3.3-1.6,4.5-3.8,5.5-5.7c0.9-1.7,1.6-3.1,3.6-4c3.6-1.7,9.1-8.1,10.3-13c3.3-13.3-5.7-30-7-32.3c0.7-1.6,1.3-3.1,1.9-4.4
							c0.7-1.6,1.7-3.6,2.8-5.7c2.2,4.4,12,25.1,9.1,39.1c-2.7,13.2-14.7,28.6-18.9,33.7c-0.8,0.9-1.3,1.9-1.1,2.1
							c0.2,0.2,1-0.3,1.8-1.3c4.2-5.1,16.3-20.6,19.1-34.2c0.2-1,0.4-2.1,0.4-3.2c0.6-1,4.4-8,5.4-17.4c1.3-11.9-1.7-29.3-2.2-32.5
							c1.4-0.1,2.4,0.5,3.2,1.2c0.9,0.8,1.5,1.7,1.7,1.6c0.3-0.1,0.1-1.2-0.7-2.1c-1.1-1.3-3-2.5-5.8-1.5
							c-6.9,2.5-12.4,12.1-15.8,19.8c-3,6.7-7.5,18.9-8.3,25.4c-0.2,1.7,0.1,4.2,0.5,6.8c0.4,2.8,0.8,5.8,0.4,7.5
							C505.8,332.6,503.4,335.9,501,339.2z M518.1,283.9c1.8-3.2,4.1-6.5,6.6-9c1.5,2.9,10,21.4,3.4,42.8
							C527.9,303.4,519.4,286.5,518.1,283.9z M496.6,348.4c0.8-2.5,3-5.5,5.2-8.5c2.4-3.3,5-6.8,5.7-9.7c0.4-2,0-5-0.4-8
							c-0.3-2.4-0.7-4.9-0.5-6.4c0.2-1.7,0.7-3.8,1.3-6.1c2.1,1.7,10.3,9.9,2.9,28.7c-0.6,0.4-1.1,0.8-1.6,1
							c-2.3,1.1-3.2,2.8-4.1,4.5c-1,1.9-2,3.8-5,5.2C498,350.1,496.9,348.9,496.6,348.4z"/>
					</g>
				</g>
				<g id="svga-group-faceshape-wrap" transform="matrix(1,0,0,1,0,0)">
					<g id="svga-group-faceshape-single">
						<path id="SvgjsPath3395" class="st2" d="M498.5,258.1L498.5,258.1c0,0.1-36.6,120.8-47.7,157.3c-2.1,7.1-5.8,13.7-10.7,19.2
							c-19.1,21.6-71.3,75.2-118,75.2c-47.5,0-100.8-57.1-119.1-78.6c-4.3-5.1-7.5-10.9-9.5-17.3c-10.8-34.7-48.4-154.9-48.4-155.1
							h0c-3.9-15-6-30.7-6-46.9C139,109.7,220.7,26.9,321.5,26.7c100.9-0.2,182.7,82.4,182.9,184.5
							C504.4,227.4,502.4,243.1,498.5,258.1z"/>
						<path id="SvgjsPath3396" class="st13" d="M418.7,54.9c42.9,33.4,71,88.4,71.1,150.6c0,16.2-1.8,31.9-5.4,46.9h0
							c0,0.1-33.7,120.8-43.8,157.3c-2,7.1-5.3,13.7-9.8,19.2c-17.6,21.6-65.6,75.2-108.5,75.2c-43.7,0-92.7-57.1-109.6-78.6
							c-4-5.1-6.9-10.9-8.8-17.3c-10-34.7-44.5-154.9-44.5-155.1h0c-3.6-15-5.5-30.7-5.5-46.9c-0.1-62.5,28-117.7,71.1-151.2
							c-51.6,32.7-85.9,90.8-85.8,156.9c0,16.2,2.1,31.9,6,46.9h0c0,0.1,37.6,120.4,48.4,155.1c2,6.4,5.2,12.2,9.5,17.3
							c18.3,21.5,71.6,78.6,119.1,78.6c46.7,0,98.8-53.6,118-75.2c4.9-5.5,8.5-12.1,10.7-19.2c11-36.4,47.6-157.1,47.6-157.3h0
							c3.8-15,5.9-30.7,5.9-46.9C504.3,145.3,470.1,87.5,418.7,54.9z"/>
						<path id="SvgjsPath3397" class="st5" d="M498.5,258.1L498.5,258.1c0,0.1-36.6,120.8-47.7,157.3c-2.1,7.1-5.8,13.7-10.7,19.2
							c-19.1,21.6-71.3,75.2-118,75.2c-47.5,0-100.8-57.1-119.1-78.6c-4.3-5.1-7.5-10.9-9.5-17.3c-10.8-34.7-48.4-154.9-48.4-155.1
							h0c-3.9-15-6-30.7-6-46.9C139,109.7,220.7,26.9,321.5,26.7c100.9-0.2,182.7,82.4,182.9,184.5
							C504.4,227.4,502.4,243.1,498.5,258.1z"/>
					</g>
				</g>
				<g id="svga-group-mouth-single-move" transform="matrix(1,0,0,1,0,0)">
					<g id="svga-group-mouth-single" transform="matrix(1,0,0,1,0,0)">
						<path id="SvgjsPath3127" class="st4" d="M306.8,436.4c0.8,0,33.1-0.3,33.1-0.3s-9.5,2.1-17.6,2.1
							C315.3,438.1,306.8,436.4,306.8,436.4z"/>
						<path id="SvgjsPath3128" class="st12" d="M281.8,432.1c-1.9-1.9,11.4-8.6,18-10.6c8.3-2.6,16.4-0.5,24.9-1.1
							c7.7-0.6,14.7-2.2,22.3,0.2c6.8,2.2,19.7,9.1,18.9,10.8c-0.9,1.7-12.6-5.1-19.1-6.5c-7.5-1.6-14.3,0.7-21.8,1.5
							c-7.7,0.8-15.2-2.1-22.9-0.9C295,426.4,282.9,433.1,281.8,432.1z"/>
					</g>
				</g>
				<g id="svga-group-eyes-left-move" transform="matrix(1,0,0,1,0,0)">
					<g id="svga-group-eyes-left" transform="matrix(1,0,0,1,0,0)">
						<g id="svga-group-eyesback-left">
							
								<radialGradient id="SvgjsPath3762_1_" cx="122.0838" cy="629.6741" r="13.37" gradientTransform="matrix(-2.7464 0 0 -2.7464 578.6004 2008.0112)" gradientUnits="userSpaceOnUse">
								<stop  offset="0" style="stop-color:#FFFFFF"/>
								<stop  offset="0.544" style="stop-color:#FDFEFE"/>
								<stop  offset="0.74" style="stop-color:#F6F8F9"/>
								<stop  offset="0.879" style="stop-color:#EAEFF2"/>
								<stop  offset="0.992" style="stop-color:#D9E3E8"/>
								<stop  offset="1" style="stop-color:#D8E2E7"/>
							</radialGradient>
							<path id="SvgjsPath3762" class="st14" d="M282.4,278.3c0.5,1.7,0.8,3.5,0.8,5.3c0,4.4-1.6,8.6-4.3,12.4
								c-12.2,0.1-50.9,2.1-56.8-0.9c-8.4-4.3-16-22.1-16.5-26.5C235.5,251.4,257.6,254.7,282.4,278.3z"/>
						</g>
						<g id="svga-group-eyesiriswrapper-left" transform="matrix(1,0,0,1,0.75,0.5)">
							<g id="svga-group-eyesiriscontrol-left" transform="matrix(1,0,0,1,0,0)">
								<g id="svga-group-eyesiris-left" transform="matrix(1,0,0,1,0,0)">
									<path id="SvgjsPath3518" class="st15" d="M263.1,281.9c-2.6,9.6-12.5,15.2-22.1,12.6c-9.6-2.6-15.3-12.5-12.6-22.1
										c2.6-9.6,12.5-15.2,22.1-12.6C260,262.4,265.7,272.3,263.1,281.9z"/>
									<path id="SvgjsPath3519" class="st16" d="M262.6,278.2c-1.3,10.6-9.2,16.2-17.9,15.6c-8-0.5-15.1-6.4-15.8-16.6
										c2.8-0.8,6.4,0.5,9.6,0c0,0.1-0.1,0.2-0.1,0.3c-0.3,3.9,2.9,7.3,7,7.6c4.1,0.3,7.7-2.7,7.9-6.6c0-0.5,0-1-0.1-1.5
										C256.3,277.5,259.8,277.1,262.6,278.2z"/>
									<path id="SvgjsPath3520" class="st17" d="M248.3,271.1c-4-1.1-8,1.1-9,5.1c-1,3.9,1.4,8,5.3,9.2c4,1.1,8-1.1,9-5.1
										C254.6,276.3,252.3,272.2,248.3,271.1z"/>
									<path id="SvgjsPath3521" class="st18" d="M248.3,271.1c-4-1.1-8,1.1-9,5.1c-1,3.9,1.4,8,5.3,9.2c4,1.1,8-1.1,9-5.1
										C254.6,276.3,252.3,272.2,248.3,271.1z"/>
									<path id="SvgjsPath3522" class="st19" d="M237.2,288.1c-0.4,1.3-2.4,0.8-2-0.6c0.4-1.3,1.3-2,2-3.2
										c0.7-1.2,2.5-0.1,1.8,1.1C238.4,286.3,237.5,287,237.2,288.1L237.2,288.1z M240.4,286c-0.6,0.7-1.3,3.1-1.6,3.9
										c-0.5,1.3,1.5,1.8,2,0.6c0.2-0.4,0.8-2.6,1.1-2.9C242.8,286.4,241.3,284.9,240.4,286L240.4,286z M244.8,292.2
										c1.1-1.3,1-2.7,1-4.3c0-1.4-2.1-1.4-2.1,0c0,0.9,0.3,2.1-0.4,2.8C242.5,291.8,243.9,293.3,244.8,292.2L244.8,292.2z
										 M247,287.6c0,1.3,0.2,2.6,0.6,3.9c0.4,1.3,2.4,0.7,2-0.6c-0.3-1.1-0.5-2.2-0.5-3.3C249.1,286.3,247,286.3,247,287.6
										L247,287.6z"/>
									<path id="SvgjsPath3523" class="st20" d="M258.3,274c-2.1,1.3-5.2,0.1-7-2.5c-1.8-2.6-1.5-5.8,0.6-7c2.1-1.3,5.2-0.1,7,2.5
										C260.6,269.6,260.4,272.8,258.3,274z"/>
								</g>
							</g>
						</g>
						<g id="svga-group-eyesfront-left">
							<path id="SvgjsPath3787" class="st2" d="M189.6,264.1c0,41.4,24.2,94.2,54,94.2s54-33.6,54-75c0-41.4-24.2-75-54-75
								S189.6,222.7,189.6,264.1z M205.5,268.6c30-17.2,52.1-13.9,76.9,9.7c0.5,1.7,0.8,3.5,0.8,5.3c0,4.4-1.6,8.6-4.3,12.4
								c-12.2,0.1-50.9,2.1-56.8-0.9C213.6,290.8,206.1,273,205.5,268.6z"/>
							
								<radialGradient id="SvgjsPath3788_1_" cx="121.9005" cy="717.4883" r="16.863" fx="133.7575" fy="717.5223" gradientTransform="matrix(2.6995 5.615997e-02 -4.481997e-02 2.1595 -41.0681 -1279.0995)" gradientUnits="userSpaceOnUse">
								<stop  offset="0" style="stop-color:#E1AC8F"/>
								<stop  offset="0.7" style="stop-color:#E1AC8F;stop-opacity:0.3"/>
								<stop  offset="1" style="stop-color:#F0C7B1;stop-opacity:0"/>
							</radialGradient>
							<path id="SvgjsPath3788" class="st21" d="M205.8,270.1c1.6,5.9,8.5,21.1,16.2,25c5.9,3,44.6,1,56.8,0.9
								c2.8-3.8,4.3-8,4.3-12.4c0-1.8-0.3-3.6-0.8-5.3c-24.5-23.4-46.4-26.9-75.9-10.2c5.9-17.2,25.6-29.9,49-30
								c28.2-0.1,51.1,17.9,51.1,40.4c0.1,22.4-22.7,40.7-50.9,40.8c-28.2,0.1-51-17.9-51.1-40.4C204.6,275.9,205,272.9,205.8,270.1
								z"/>
							
								<radialGradient id="SvgjsPath3793_1_" cx="64.3248" cy="611.0066" r="22.097" gradientTransform="matrix(2.8228 -0.1471 -0.148 -2.8056 149.5845 2056.3391)" gradientUnits="userSpaceOnUse">
								<stop  offset="0.95" style="stop-color:#000000;stop-opacity:0"/>
								<stop  offset="1" style="stop-color:#000000;stop-opacity:0.2"/>
							</radialGradient>
							<path id="SvgjsPath3793" class="st22" d="M222,295.1c-8.4-4.3-16-22.1-16.5-26.5c30-17.2,52.1-13.9,76.9,9.7
								c0.5,1.7,0.8,3.5,0.8,5.3c0,4.4-1.6,8.6-4.3,12.4C266.6,296.1,227.9,298.1,222,295.1z"/>
							<path id="SvgjsPath3797" class="st12" d="M205.6,259.3c10.2-4,53.4-18.9,76.9,12.8C255.6,241.8,218.9,255.7,205.6,259.3z"/>
							<path id="SvgjsPath3798" d="M198.6,267c3.7,7,19.1,30.5,22.7,30.7c30.2,1.8,48.9-0.7,60.9-2.4c-4.5-0.6-53.5,2.3-60.2-0.9
								c-8.4-4.1-16-21.1-16.5-25.3c30.8-16.9,53.2-13.1,78.8,11C259.4,242.2,207.8,259.4,198.6,267z"/>
						</g>
					</g>
				</g>
				<g id="svga-group-eyes-right-move" transform="matrix(1,0,0,1,0,0)">
					<g id="svga-group-eyes-right" transform="matrix(1,0,0,1,0,0)">
						<g id="svga-group-eyesback-right">
							
								<radialGradient id="SvgjsPath3770_1_" cx="125.6928" cy="629.6741" r="13.371" gradientTransform="matrix(2.7464 0 0 -2.7464 54.6719 2008.0112)" gradientUnits="userSpaceOnUse">
								<stop  offset="0" style="stop-color:#FFFFFF"/>
								<stop  offset="0.544" style="stop-color:#FDFEFE"/>
								<stop  offset="0.74" style="stop-color:#F6F8F9"/>
								<stop  offset="0.879" style="stop-color:#EAEFF2"/>
								<stop  offset="0.992" style="stop-color:#D9E3E8"/>
								<stop  offset="1" style="stop-color:#D8E2E7"/>
							</radialGradient>
							<path id="SvgjsPath3770" class="st23" d="M360.8,278.3c-0.5,1.7-0.8,3.5-0.8,5.3c0,4.4,1.6,8.6,4.3,12.4
								c12.2,0.1,50.9,2.1,56.8-0.9c8.4-4.3,16-22.1,16.5-26.5C407.7,251.4,385.6,254.7,360.8,278.3z"/>
						</g>
						<g id="svga-group-eyesiriswrapper-right" transform="matrix(1,0,0,1,-0.75,0.5)">
							<g id="svga-group-eyesiriscontrol-right" transform="matrix(1,0,0,1,0,0)">
								<g id="svga-group-eyesiris-right" transform="matrix(1,0,0,1,0,0)">
									<path id="SvgjsPath3524" class="st15" d="M416.1,281.9c-2.6,9.6-12.5,15.2-22.1,12.6c-9.6-2.6-15.3-12.5-12.6-22.1
										c2.6-9.6,12.5-15.2,22.1-12.6C413,262.4,418.7,272.3,416.1,281.9z"/>
									<path id="SvgjsPath3525" class="st16" d="M415.6,278.2c-1.3,10.6-9.2,16.2-17.9,15.6c-8-0.5-15.1-6.4-15.8-16.6
										c2.8-0.8,6.4,0.5,9.6,0c0,0.1-0.1,0.2-0.1,0.3c-0.3,3.9,2.9,7.3,7,7.6c4.1,0.3,7.7-2.7,7.9-6.6c0-0.5,0-1-0.1-1.5
										C409.3,277.5,412.8,277.1,415.6,278.2z"/>
									<path id="SvgjsPath3526" class="st17" d="M401.3,271.1c-4-1.1-8,1.1-9,5.1c-1,3.9,1.4,8,5.3,9.2c4,1.1,8-1.1,9-5.1
										C407.6,276.3,405.3,272.2,401.3,271.1z"/>
									<path id="SvgjsPath3527" class="st18" d="M401.3,271.1c-4-1.1-8,1.1-9,5.1c-1,3.9,1.4,8,5.3,9.2c4,1.1,8-1.1,9-5.1
										C407.6,276.3,405.3,272.2,401.3,271.1z"/>
									<path id="SvgjsPath3528" class="st19" d="M390.2,288.1c-0.4,1.3-2.4,0.8-2-0.6c0.4-1.3,1.3-2,2-3.2
										c0.7-1.2,2.5-0.1,1.8,1.1C391.4,286.3,390.5,287,390.2,288.1L390.2,288.1z M393.4,286c-0.6,0.7-1.3,3.1-1.6,3.9
										c-0.5,1.3,1.5,1.8,2,0.6c0.2-0.4,0.8-2.6,1.1-2.9C395.8,286.4,394.3,284.9,393.4,286L393.4,286z M397.8,292.2
										c1.1-1.3,1-2.7,1-4.3c0-1.4-2.1-1.4-2.1,0c0,0.9,0.3,2.1-0.4,2.8C395.5,291.8,396.9,293.3,397.8,292.2L397.8,292.2z
										 M400,287.6c0,1.3,0.2,2.6,0.6,3.9c0.4,1.3,2.4,0.7,2-0.6c-0.3-1.1-0.5-2.2-0.5-3.3C402.1,286.3,400,286.3,400,287.6
										L400,287.6z"/>
									<path id="SvgjsPath3529" class="st20" d="M411.3,274c-2.1,1.3-5.2,0.1-7-2.5c-1.8-2.6-1.5-5.8,0.6-7c2.1-1.3,5.2-0.1,7,2.5
										C413.6,269.6,413.4,272.8,411.3,274z"/>
								</g>
							</g>
						</g>
						<g id="svga-group-eyesfront-right">
							<path id="SvgjsPath3808" class="st2" d="M399.6,208.3c-29.8,0-54,33.6-54,75s24.2,75,54,75s54-48.7,54-90.1
								C453.6,226.8,429.4,208.3,399.6,208.3z M421.2,295.1c-5.9,3-44.6,1-56.8,0.9c-2.8-3.8-4.3-8-4.3-12.4c0-1.8,0.3-3.6,0.8-5.3
								c24.8-23.6,46.9-27,76.9-9.7C437.1,273,429.6,290.8,421.2,295.1z"/>
							
								<radialGradient id="SvgjsPath3809_1_" cx="117.3429" cy="717.5953" r="16.863" fx="129.1999" fy="717.6293" gradientTransform="matrix(-2.6995 5.615997e-02 4.481997e-02 2.1595 671.9443 -1279.0746)" gradientUnits="userSpaceOnUse">
								<stop  offset="0" style="stop-color:#E1AC8F"/>
								<stop  offset="0.7" style="stop-color:#E1AC8F;stop-opacity:0.3"/>
								<stop  offset="1" style="stop-color:#F0C7B1;stop-opacity:0"/>
							</radialGradient>
							<path id="SvgjsPath3809" class="st24" d="M437.4,270.1c-1.6,5.9-8.5,21.1-16.2,25c-5.9,3-44.6,1-56.8,0.9
								c-2.8-3.8-4.3-8-4.3-12.4c0-1.8,0.3-3.6,0.8-5.3c24.5-23.4,46.4-26.9,75.9-10.2c-5.9-17.2-25.6-29.9-49-30
								c-28.2-0.1-51.1,17.9-51.1,40.4c-0.1,22.4,22.7,40.7,50.9,40.8c28.2,0.1,51-17.9,51.1-40.4
								C438.6,275.9,438.2,272.9,437.4,270.1z"/>
							
								<radialGradient id="SvgjsPath3814_1_" cx="60.8239" cy="611.1947" r="22.097" gradientTransform="matrix(-2.8228 -0.1471 0.148 -2.8056 483.6873 2056.3521)" gradientUnits="userSpaceOnUse">
								<stop  offset="0.95" style="stop-color:#000000;stop-opacity:0"/>
								<stop  offset="1" style="stop-color:#000000;stop-opacity:0.2"/>
							</radialGradient>
							<path id="SvgjsPath3814" class="st25" d="M421.2,295.1c8.4-4.3,16-22.1,16.5-26.5c-30-17.2-52.1-13.9-76.9,9.7
								c-0.5,1.7-0.8,3.5-0.8,5.3c0,4.4,1.6,8.6,4.3,12.4C376.6,296.1,415.3,298.1,421.2,295.1z"/>
							<path id="SvgjsPath3818" class="st12" d="M360.6,272.1c23.6-31.8,66.7-16.8,76.9-12.8C424.2,255.7,387.6,241.8,360.6,272.1z"
								/>
							<path id="SvgjsPath3819" d="M444.6,267c-3.7,7-19.1,30.5-22.7,30.7c-30.2,1.8-48.9-0.7-60.9-2.4c4.5-0.6,53.5,2.3,60.2-0.9
								c8.4-4.1,16-21.1,16.5-25.3c-30.8-16.9-53.2-13.1-78.8,11C383.8,242.2,435.4,259.4,444.6,267z"/>
						</g>
					</g>
				</g>
				<g id="svga-group-facehighlight-single">
					
						<radialGradient id="SvgjsPath2906_1_" cx="96.517" cy="596.6386" r="41.0003" gradientTransform="matrix(2.7 0 0 -2.7 61.5946 1977.0131)" gradientUnits="userSpaceOnUse">
						<stop  offset="0" style="stop-color:#FFE4D6;stop-opacity:0.5"/>
						<stop  offset="0.9" style="stop-color:#F0C7B1;stop-opacity:0"/>
					</radialGradient>
					<path id="SvgjsPath2906" class="st26" d="M445.2,366c0.1,67.9-54.9,123-122.8,123.1c-67.9,0.1-123.1-54.8-123.2-122.7
						c-0.1-67.9,54.9-123.2,122.8-123.3C389.9,243,445.1,298.1,445.2,366z"/>
					
						<radialGradient id="SvgjsPath2910_1_" cx="96.5175" cy="663.3054" r="36.9995" gradientTransform="matrix(2.7 0 0 -2.7 61.5946 1977.0131)" gradientUnits="userSpaceOnUse">
						<stop  offset="0" style="stop-color:#FFE4D6;stop-opacity:0.5"/>
						<stop  offset="0.9" style="stop-color:#F0C7B1;stop-opacity:0"/>
					</radialGradient>
					<path id="SvgjsPath2910" class="st27" d="M434.7,186.1c0,62.1-50.4,112.5-112.5,112.5c-62.1,0-112.5-50.4-112.5-112.5
						S260.1,73.6,322.2,73.6C384.3,73.6,434.7,124,434.7,186.1z"/>
				</g>
				<g id="svga-group-eyebrows-left-move" transform="matrix(1,0,0,1,2,1)">
					
						<g id="svga-group-eyebrows-left-rotate" transform="matrix(0.9914448857307434,0.13052619993686676,-0.13052619993686676,0.9914448857307434,9.78549575805664,-8.954087257385254)">
						
							<g id="svga-group-eyebrows-left" transform="matrix(1.1000003000000003,0,0,1.1000003000000003,-7.156857408007838,-7.130099515234392)">
							<path id="SvgjsPath3826" class="st1" d="M190.2,192.9c21.1,10.6,45.2,13.3,94.9,19.3c1.6,0.3,2.8,0.6,3.8,0.6
								c5-0.1,9.2-4.7,8.6-8.8C295.2,188.4,211.3,195.7,190.2,192.9z"/>
						</g>
					</g>
				</g>
				<g id="svga-group-eyebrows-right-move" transform="matrix(1,0,0,1,-2,1)">
					
						<g id="svga-group-eyebrows-right-rotate" transform="matrix(0.9914448857307434,-0.13052619993686676,0.13052619993686676,0.9914448857307434,-8.094550132751465,17.157333374023438)">
						
							<g id="svga-group-eyebrows-right" transform="matrix(1.1000003000000003,0,0,1.1000003000000003,-12.843202591992224,-7.130099515234392)">
							<path id="SvgjsPath3827" class="st1" d="M410.3,245.7c-21.1,10.6-45.2,13.3-94.9,19.3c-1.6,0.3-2.8,0.6-3.8,0.6
								c-5-0.1-9.3-4.7-8.6-8.8C305.3,241.2,389.2,248.5,410.3,245.7z"/>
						</g>
					</g>
				</g>
				<g id="svga-group-nose-single-move" transform="matrix(1,0,0,1,0,0)">
					<g id="svga-group-nose-single" transform="matrix(1,0,0,1,0,0)">
						<path id="SvgjsPath3423" class="st13" d="M298.6,379.7c10-9.9,38.9-7.6,47.2-0.5C328.3,387.5,317.7,385.2,298.6,379.7z"/>
						<path id="SvgjsPath3424" class="st12" d="M322.4,387.1c-4.1,0-8.2-1.4-11.8-2.8c-1.5-0.6-2.9-1-4.5-1.3c-2-0.3-5.7,0.2-7.2-1
							c-1.6-1.3-0.3-3.3,1.9-3.4c2.6,0,5.3,0.2,7.9,0.7c4.5,1,8.3,3.4,13.1,3.7c3.6,0.2,7.6-1.6,10.9-2.6c2.5-0.8,11-4,13.1-1.2
							c1.3,1.7-0.8,2.9-2.7,3c-2.4,0.1-4.8,0.8-7,1.4C331.7,385,327.1,387.1,322.4,387.1z"/>
						<path id="SvgjsPath3425" class="st28" d="M322.1,373.3c1.9,0,6.4-2.2,5.6-6.5c-4.3-25.5-5.6-69.6-5.6-69.6s-3.3,51.7-6.1,69.6
							C315.3,371.1,320,373.3,322.1,373.3z"/>
					</g>
				</g>
				<g id="svga-group-beardwrap" transform="matrix(1,0,0,1,0,0)">
					<g id="svga-group-beard-single-move" transform="matrix(1,0,0,1,0,0)">
						<g id="svga-group-beard-single" transform="matrix(1,0,0,1,0,0)">
							<path id="SvgjsPath3042" class="st1" d="M322.2,78.5L322.2,78.5L322.2,78.5L322.2,78.5z"/>
						</g>
					</g>
				</g>
				<g id="svga-group-mustache-single-move" transform="matrix(1,0,0,1,0,0)">
					<g id="svga-group-mustache-single" transform="matrix(1,0,0,1,0,0)">
						<path id="SvgjsPath3040" class="st1" d="M322.2,78.5L322.2,78.5L322.2,78.5L322.2,78.5z"/>
					</g>
				</g>
				<g id="svga-group-hair-front" transform="matrix(1,0,0,1,0,0)">
					<path id="SvgjsPath3386" class="st29" d="M515.3,176.3c-0.5-9.9-4.6-24.8-7.5-33.9c-3.3,5.7-3.7,5.7-5.6,8.8
						c-0.6-3.6-4.9-41.8-19.1-63.6c-1.6,5.7,0.2,12.3-3.3,16.7c-7.7-16-19-43.7-44.5-61.9c2.6,6.8,1.2,8.7,1.8,11.1
						c-7.5-10.9-16.5-16.6-30.9-24.9c0,5.1,0.5,8.3,0.5,8.3c-5.3-6.1-17.3-23.1-32.8-32.9c0.7,2.6-0.8,8.3-0.2,11.1
						c-5.1-10.8-20.6-31.7-35.9-29.2c-4.3-4.3-8-11.7-11.9-16.5c-2.5,13-22.9,41.5-44,54.3c0.7-5.4-0.3-10.1-1.6-15.6
						c-3.8,7.8-16.2,23-25.2,26.6c0.9-3.9,0.2-11.4,0.2-11.4c-4.8,6.3-8.9,9.7-15.2,15.3c0.1-3.5,1.9-10.9,2.9-14.6
						c-9.9,4.4-19.7,16-26.9,24.5c-0.8-4.8,0.8-14.9,2.4-17.1c-35.4,23.4-52.1,42.2-68.3,87.5c-1.1-2.3-1.8-5-2.1-12.5
						c-20.2,32.8-31.6,55.5-10.4,137.4c-4.3-2.6-6.7-4.4-10.1-7.8c5.1,34.1,12.5,45.5,38,74.6c12.6-14.7,5.8-40.5,3.8-52.7
						c0.3-18.5,5.5-15.3,6.2-23.7c0.3-3.8,2.3-10.1,2-13.9c-1.4-15.1,3.4-41.9,10.4-59.5c10.8-15.8,23.1-26.5,39.1-36.1
						c25.3-5,48.8,5.4,55.9,7.3c13,3.4,65.1,3.4,78.1,0c9-2.3,34.1-12.9,60.1-6c19.6,11.2,30.5,21.7,38.6,42.1
						c5.1,16.2,8.1,36.4,6.8,49.2c-0.4,3.8,1.3,13.1,1.7,16.9c0.3,3.4,4.7,11.1,5.5,14.4c3.4,13.8-3.7,50.7-3.7,50.7
						c-0.2,5.2,0.3,10.3,1.9,15.2c18.6-11.6,19.8-18.5,22.5-27.2c2.2-7.2,13.9-34.6,14.2-39.6c-2.4,2.6-7.2,5.9-9.8,7.1
						c2.1-8.3,11.9-23.9,13.7-32.9C516.1,205.8,516.1,192.8,515.3,176.3z"/>
					<path id="SvgjsPath3387" class="st1" d="M515.3,176.3c-0.5-9.9-4.6-24.8-7.5-33.9c-3.3,5.7-3.7,5.7-5.6,8.8
						c-0.6-3.6-4.9-41.8-19.1-63.6c-1.6,5.7,0.2,12.3-3.3,16.7c-7.7-16-19-43.7-44.5-61.9c2.6,6.8,1.2,8.7,1.8,11.1
						c-7.5-10.9-16.5-16.6-30.9-24.9c0,5.1,0.5,8.3,0.5,8.3c-5.3-6.1-17.3-23.1-32.8-32.9c0.7,2.6-0.8,8.3-0.2,11.1
						c-5.1-10.8-20.6-31.7-35.9-29.2c-4.3-4.3-8-11.7-11.9-16.5c-2.5,13-22.9,41.5-44,54.3c0.7-5.4-0.3-10.1-1.6-15.6
						c-3.8,7.8-16.2,23-25.2,26.6c0.9-3.9,0.2-11.4,0.2-11.4c-4.8,6.3-8.9,9.7-15.2,15.3c0.1-3.5,1.9-10.9,2.9-14.6
						c-9.9,4.4-19.7,16-26.9,24.5c-0.8-4.8,0.8-14.9,2.4-17.1c-35.4,23.4-52.1,42.2-68.3,87.5c-1.1-2.3-1.8-5-2.1-12.5
						c-20.2,32.8-31.6,55.5-10.4,137.4c-4.3-2.6-6.7-4.4-10.1-7.8c4.9,33.2,12.1,44.9,36,72.2c-11.4-19.3-25.3-35.8-30.4-58.9
						c6,3,15,9,21,12c-15-42-30-96-9-135c3,12,10.6,26.2,16.6,35.2c-13.1-35.6,16.4-80.2,37.4-107.2c0,15-3,33,3,48
						c0-21,15-33,24-51c0,12-3,21,3,33c3-15,6-30,15-42c6,12,3,24,9,36c0-18,9-27,12-42c6.6,15.2,12,18,15,30
						c-3-33,42.6-35.8,45.6-68.8c3,21,8.4,35.8,5.4,59.8c12-15,18-33,21-54c21,18,15,42,24,63c6-12,6-27,9-42c12,21,24,45,33,69
						c3-15,8.6-21.8,0-45c21,15,36,42,33,69c3-15,6-30,6-45c3,33,24,63,21,99c6-15,12-30,12-48c2.7,30.2,7.9,62.8-0.3,93.4
						c4.6-11.4,12.3-22,12.3-36.4c9,33-21,60-18,93c0-5.1,8.7-8.1,11.3-12.5c0.2-0.8,0.5-1.6,0.7-2.5c0,0.9-0.3,1.7-0.7,2.5
						c-4.8,16.1-8.8,32.3-14.9,47.9c10.7-8.3,11.9-14.2,14.1-21.4c2.2-7.2,13.9-34.6,14.2-39.6c-2.4,2.6-7.2,5.9-9.8,7.1
						c2.1-8.3,11.9-23.9,13.7-32.9C516.1,205.8,516.1,192.8,515.3,176.3z"/>
					<path id="SvgjsPath3388" d="M507.2,136c-1.1,4.8-1.5,5.9-3.4,10.6c-1.4-16.8-8.9-44.1-22.1-63.1c-0.4,6.5-0.7,10-1.7,16.1
						c-3.6-12.8-19.4-42-47.3-60.8c0.4,1,0.7,2.1,1.1,3.2v0c0.8,2.3,1.5,4.9,2.2,7.5c-11.5-14.3-21.8-16.7-31.9-23.6
						c0.5,2.9,0.8,5.9,0.8,6.1C392.9,15.6,383.9,9,372.8,2.7c0.1,1.4,0.4,7.3,0.4,10.9c-7.3-15.4-13.9-27-35.6-29.1
						c-1.6-3-6.9-12.3-12.4-17.9C318.2-9.2,299.3,7.7,282.7,22c0-5.6-0.9-11.1-2.2-16.5c-6.8,12-11.9,18.6-24.8,28.4
						c0.2-2.3,0.5-9.2,0.3-13.4c-3.5,4.8-9.1,10.9-15.4,16.2c0,0,3.5-14.7,3.5-14.9c-0.5,0.2-0.9,0.5-1.4,0.8
						c-2.9,0.7-15.6,8.9-26.7,23.4c1.1-10.3,3.1-14,3.9-17c-33.3,19.1-59.7,48.8-70.2,86.8c-0.5-5.3-0.8-9.9-0.8-11.6
						c-15.3,19.3-22.6,39.1-23.6,44c-6.2,27.8,1.4,74.2,10.5,93.7c-5.8-4.6-0.6,0-9.6-8.2c0,14.1,3,24.1,8.2,36.3
						c7.3,17.2,17.6,28.1,31.3,40.2c-14.1-17.2-33.3-41.1-37.1-72.4c2.5,2.5,4,3.5,8.4,6.8h0c0,0,0,0,0,0c1.9,1.3,0.8,0.7,3.1,2
						c-22.5-81.5-6.2-113.7,7.5-139.2c0.4,11.9,2.5,17.1,6.4,23.7c-2-5.2-1.8-3.5-3.3-9.9c10.9-34.7,36.5-62.9,64.1-86.3
						c0.7-0.6,1.4-1.2,2.2-1.7c-1,2.5-2.5,10.3-2.5,15c-6.3,9-7.5,16.6-8,19.9c1-3,2.1-7.9,8.1-16.1v0c7.8-12,21.8-23.8,27.8-27.9
						c-3.9,13.1-4.1,18.3-3.9,28c0.6-5.5,0.5-5.8,1.8-13.1c5-3.9,10.1-8.9,14.6-14.9c-0.3,6.9,0.1,16.5-3.8,25
						c3.3-5,4.6-11.1,4.6-14.1c3.9-2.4,13.4-6.5,24.3-25.2c2.4,16,0.6,24.9-1.8,31.3c1.9-3.6,4.5-8.7,4.5-17.4
						c20.3-14,34.5-26.3,42.7-50.5c0.2-0.9,0.5-1.8,0.6-2.7c4.6,6.5,22.8,35.7,19.1,43.5c4.6-4.7-3.7-22.4-6.9-28.4
						c22.9,5.7,25.1,12.1,40.7,44.5c-1.8-6-3.3-11.3-4.4-14.3c0.4-5.5,0-8.1-0.3-11.1C390,17,415.8,45.6,415.8,67.3
						c1.3-8.1,0.7-15.3-5.8-27.4c-0.8-1.5-1.6-2.9-2.5-4.2c-0.2-1.9-1-5.8-1-5.8c5.4,5.7,17.3,7,31.3,28.1
						c1.9,2.5,10.5,19.2,13.9,25.1c-7.1-19.9-9.1-23-11.6-27.7c-1.2-5.3-1.1-4.9-3-10.3c31.6,31.2,43.5,50.8,47.6,95.1
						c0.7-11.8,0.4-24-3.1-35.3c1-4.2,1.7-8.9,2.1-13.5c2.1,4.3,10.6,25.6,14.7,46.2c3.6,18.2,3.6,29.3,2.7,41.6
						c3.1-12.7,3.3-24,2.9-28.5c1.1-1.7,1.9-3.7,2.7-5.3c5.8,31.7,14.6,57.7-10.9,112.6c2.9-1.6,8.2-4.5,11.3-8.2
						c0,0-8.9,21.3-13.7,35c-8.4,20.8-7.4,18.6-21.3,29.5c15.3-6.4,19.6-15.2,24.6-28.2c9.5-27.7,8.6-18.5,15.8-45.3
						c-3.3,4.2-5.9,7.5-10,11C530.4,201.1,515.5,166.5,507.2,136z"/>
				</g>
				<g id="svga-group-glasses-single-move" transform="matrix(1,0,0,1,0,0)">
					<g id="svga-group-glasses-single" transform="matrix(1,0,0,1,0,0)">
						<path id="SvgjsPath3516" class="st30" d="M322.2,78.5L322.2,78.5L322.2,78.5L322.2,78.5z"/>
					</g>
				</g>
			</g>
		</g>
	</g>
	<rect id="SvgjsRect1057" y="555" class="st31" width="600" height="45"/>
	<text transform="matrix(1 0 0 1 173.9717 586.2852)" class="st32 st33 st34">Created on face.co</text>
</g>
</svg>
