<?xml version="1.0" encoding="utf-8"?>
<!-- Generator: Adobe Illustrator 23.0.2, SVG Export Plug-In . SVG Version: 6.00 Build 0)  -->
<svg version="1.1" id="Capa_1" xmlns="http://www.w3.org/2000/svg" xmlns:xlink="http://www.w3.org/1999/xlink" x="0px" y="0px"
	 viewBox="0 0 229.5 156.2" style="enable-background:new 0 0 229.5 156.2;" xml:space="preserve">
<style type="text/css">
	.st0{opacity:0.54;fill:#211915;}
	.st1{fill-rule:evenodd;clip-rule:evenodd;fill:#C55064;}
	.st2{fill:#C55064;}
	.st3{fill-rule:evenodd;clip-rule:evenodd;fill:#B14F5E;}
	.st4{fill:#B14F5E;}
</style>
<g>
	<g>
		<g>
			<g>
				<polygon class="st3" points="18.2,-32.9 86.1,-2.6 86.1,32.9 18.2,2.6 				"/>
				<path class="st3" d="M95.6-2.6l91.6-20.2c27.1-4.2,33.4,7.4,33.9,28L95.6,32.9V-2.6z"/>
				<polygon class="st3" points="17.9,14.6 86.1,45 86.1,80.4 17.7,50.4 				"/>
				<polygon class="st3" points="95.6,45 131.9,37.1 131.9,72.5 95.6,80.4 				"/>
				<path class="st3" d="M180.6,26.4l40.1-8.8V53l-33.5,7.3C192,49.8,191.9,28.1,180.6,26.4"/>
				<path class="st3" d="M95.6,130.5l89.8-19.7c36.4-9.5,35.7-25.6,35.3-47L95.6,91.3V130.5z"/>
				<polygon class="st3" points="18.2,61 86.1,91.3 86.1,130.5 18.2,100.2 				"/>
				<polygon class="st3" points="18.2,109.8 86.1,140.1 86.1,164.3 18.2,134 				"/>
				<polygon class="st3" points="18.1,134 86.1,164.3 86.1,197.9 18.2,167.6 				"/>
			</g>
		</g>
	</g>
</g>
<polygon class="st4" points="149.8,128.4 96.6,139.6 156.3,196.7 221.1,196.7 "/>
</svg>
